<svg width="37" height="43" viewBox="0 0 37 43" fill="none" xmlns="http://www.w3.org/2000/svg">
<g filter="url(#filter0_f)">
<path d="M22.6354 27C16.9203 27 14.4459 28.9496 14.4459 31.3459C14.4459 34.3199 12.6622 38.6858 13.0571 38.8702C13.428 39.0434 14.0756 39.0431 14.4459 38.8702C14.8408 38.6858 33 34.3199 33 31.3459C32.9999 28.9496 28.3504 27 22.6354 27Z" fill="#8D8D8D" fill-opacity="0.5"/>
</g>
<path d="M14.1245 0C6.33622 0 0 6.33622 0 14.1244C0 23.7899 12.6401 37.9793 13.1782 38.5786C13.6837 39.1416 14.5662 39.1406 15.0708 38.5786C15.609 37.9793 28.249 23.7899 28.249 14.1244C28.2489 6.33622 21.9127 0 14.1245 0Z" fill="#334DA8"/>
<path d="M18.3127 18.6215C18.3127 18.5626 18.2534 18.5626 18.3127 18.6215C18.2534 18.5626 18.1941 18.5626 18.1941 18.5626L18.0162 18.6215L17.6012 17.502C18.5498 17.0896 19.4391 16.5594 20.2691 15.9113L20.3284 15.8523V15.7934L19.6762 15.0275C19.617 14.9686 19.5577 14.9686 19.5577 15.0275C18.9055 15.6167 18.1348 16.088 17.3048 16.4415L17.127 16.0291C17.8977 15.6756 18.6091 15.2632 19.2612 14.7329L19.3205 14.674V14.6151L18.6684 13.8491C18.6091 13.7902 18.5498 13.7902 18.5498 13.8491C18.0162 14.3205 17.4234 14.674 16.7712 14.9686L15.052 10.1962C15.6448 9.78375 16.0598 9.13565 16.0598 8.42863C16.0598 7.42702 15.4077 6.60216 14.3998 6.36649V4.18651C14.3998 3.89192 14.1627 3.65625 13.8663 3.65625C13.5698 3.65625 13.3327 3.89192 13.3327 4.18651V6.18974C12.3248 6.42541 11.6134 7.30918 11.6134 8.25188C11.6134 8.9589 11.9691 9.66591 12.6213 10.0194L10.8427 14.9096C10.3684 14.9096 9.89413 15.2042 9.65698 15.6167C9.36056 16.2058 9.47913 16.9129 9.95341 17.3253L9.5977 18.3858L9.53841 18.3269C9.47913 18.3269 9.41984 18.3269 9.41984 18.3858L8.7677 20.2712L8.29342 22.6279C8.29342 22.6869 8.29342 22.7458 8.3527 22.7458H8.41199L7.87842 24.5133C7.87842 24.5722 7.87842 24.6312 7.9377 24.6312C7.99699 24.6312 8.05627 24.6312 8.05627 24.5722L8.7677 22.8636H8.82699C8.88627 22.8636 8.94556 22.8636 8.94556 22.8047L10.0127 20.7426L10.6648 18.8572C10.6648 18.7982 10.6648 18.7393 10.6056 18.7393L10.487 18.6804L10.8427 17.7966C12.7398 18.3858 14.7555 18.3858 16.712 17.7966L17.127 18.9161L16.9491 18.975C16.8898 18.975 16.8898 19.0339 16.8898 19.0928L17.542 20.9782L18.9055 22.8047C18.9055 22.8636 18.9648 22.8636 19.0241 22.8636L19.2612 22.8047C19.617 23.8063 20.2691 24.9257 20.2691 24.9257L20.3284 24.9847C20.3284 24.9847 20.3284 24.9847 20.3877 24.9847C20.4469 24.9847 20.4469 24.9257 20.4469 24.8668L18.3127 18.6215ZM13.9848 10.3729L15.7041 15.1453C14.3998 15.4988 13.0363 15.4988 11.732 15.1453L13.4513 10.3729C13.6884 10.3729 13.8663 10.3729 13.9848 10.3729ZM16.1191 16.2648L16.297 16.6772C14.6963 17.1485 13.0363 17.2075 11.3763 16.6772H11.317C11.2577 16.7361 11.1391 16.795 11.0206 16.795C10.7241 16.795 10.5463 16.5594 10.5463 16.3237C10.5463 16.0291 10.7834 15.8523 11.0206 15.8523C11.1984 15.8523 11.4355 15.9702 11.4948 16.2058C11.4948 16.2648 11.5541 16.2648 11.5541 16.2648C13.0955 16.7361 14.637 16.6772 16.1191 16.2648ZM13.7477 9.54808C13.0363 9.54808 12.4434 8.9589 12.4434 8.25188C12.4434 7.54486 13.0363 6.95567 13.7477 6.95567C14.4591 6.95567 15.052 7.54486 15.052 8.25188C15.052 8.9589 14.4591 9.54808 13.7477 9.54808Z" fill="white"/>
<defs>
<filter id="filter0_f" x="9" y="23" width="28" height="20" filterUnits="userSpaceOnUse" color-interpolation-filters="sRGB">
<feFlood flood-opacity="0" result="BackgroundImageFix"/>
<feBlend mode="normal" in="SourceGraphic" in2="BackgroundImageFix" result="shape"/>
<feGaussianBlur stdDeviation="2" result="effect1_foregroundBlur"/>
</filter>
</defs>
</svg>
