<svg width="45" height="51" viewBox="0 0 45 51" fill="none" xmlns="http://www.w3.org/2000/svg">
<g filter="url(#filter0_f)">
<path d="M30.6354 35C24.9203 35 22.4459 36.9496 22.4459 39.3459C22.4459 42.3199 20.6622 46.6858 21.0571 46.8702C21.428 47.0434 22.0756 47.0431 22.4459 46.8702C22.8408 46.6858 41 42.3199 41 39.3459C40.9999 36.9496 36.3504 35 30.6354 35Z" fill="#8D8D8D" fill-opacity="0.5"/>
</g>
<g filter="url(#filter1_d)">
<path d="M22.1245 8C14.3362 8 8 14.3362 8 22.1244C8 31.7899 20.6401 45.9793 21.1782 46.5786C21.6837 47.1416 22.5662 47.1406 23.0708 46.5786C23.609 45.9793 36.249 31.7899 36.249 22.1244C36.2489 14.3362 29.9127 8 22.1245 8Z" fill="#334DA8"/>
</g>
<path d="M26.3125 26.6215C26.3125 26.5626 26.2533 26.5626 26.3125 26.6215C26.2533 26.5626 26.194 26.5626 26.194 26.5626L26.0161 26.6215L25.6011 25.502C26.5497 25.0896 27.439 24.5594 28.269 23.9113L28.3283 23.8523V23.7934L27.6761 23.0275C27.6168 22.9686 27.5575 22.9686 27.5575 23.0275C26.9054 23.6167 26.1347 24.088 25.3047 24.4415L25.1268 24.0291C25.8975 23.6756 26.609 23.2632 27.2611 22.7329L27.3204 22.674V22.6151L26.6683 21.8491C26.609 21.7902 26.5497 21.7902 26.5497 21.8491C26.0161 22.3205 25.4233 22.674 24.7711 22.9686L23.0518 18.1962C23.6447 17.7838 24.0597 17.1357 24.0597 16.4286C24.0597 15.427 23.4076 14.6022 22.3997 14.3665V12.1865C22.3997 11.8919 22.1626 11.6562 21.8661 11.6562C21.5697 11.6562 21.3326 11.8919 21.3326 12.1865V14.1897C20.3247 14.4254 19.6133 15.3092 19.6133 16.2519C19.6133 16.9589 19.969 17.6659 20.6211 18.0194L18.8426 22.9096C18.3683 22.9096 17.894 23.2042 17.6569 23.6167C17.3604 24.2058 17.479 24.9129 17.9533 25.3253L17.5976 26.3858L17.5383 26.3269C17.479 26.3269 17.4197 26.3269 17.4197 26.3858L16.7676 28.2712L16.2933 30.6279C16.2933 30.6869 16.2933 30.7458 16.3526 30.7458H16.4119L15.8783 32.5133C15.8783 32.5722 15.8783 32.6312 15.9376 32.6312C15.9969 32.6312 16.0562 32.6312 16.0562 32.5722L16.7676 30.8636H16.8269C16.8862 30.8636 16.9454 30.8636 16.9454 30.8047L18.0126 28.7426L18.6647 26.8572C18.6647 26.7982 18.6647 26.7393 18.6054 26.7393L18.4869 26.6804L18.8426 25.7966C20.7397 26.3858 22.7554 26.3858 24.7118 25.7966L25.1268 26.9161L24.949 26.975C24.8897 26.975 24.8897 27.0339 24.8897 27.0928L25.5418 28.9782L26.9054 30.8047C26.9054 30.8636 26.9647 30.8636 27.024 30.8636L27.2611 30.8047C27.6168 31.8063 28.269 32.9257 28.269 32.9257L28.3283 32.9847C28.3283 32.9847 28.3283 32.9847 28.3875 32.9847C28.4468 32.9847 28.4468 32.9257 28.4468 32.8668L26.3125 26.6215ZM21.9847 18.3729L23.704 23.1453C22.3997 23.4988 21.0361 23.4988 19.7319 23.1453L21.4511 18.3729C21.6883 18.3729 21.8661 18.3729 21.9847 18.3729ZM24.119 24.2648L24.2968 24.6772C22.6961 25.1485 21.0361 25.2075 19.3761 24.6772H19.3169C19.2576 24.7361 19.139 24.795 19.0204 24.795C18.724 24.795 18.5461 24.5594 18.5461 24.3237C18.5461 24.0291 18.7833 23.8523 19.0204 23.8523C19.1983 23.8523 19.4354 23.9702 19.4947 24.2058C19.4947 24.2648 19.554 24.2648 19.554 24.2648C21.0954 24.7361 22.6368 24.6772 24.119 24.2648ZM21.7476 17.5481C21.0361 17.5481 20.4433 16.9589 20.4433 16.2519C20.4433 15.5449 21.0361 14.9557 21.7476 14.9557C22.459 14.9557 23.0518 15.5449 23.0518 16.2519C23.0518 16.9589 22.459 17.5481 21.7476 17.5481Z" fill="white"/>
<defs>
<filter id="filter0_f" x="17" y="31" width="28" height="20" filterUnits="userSpaceOnUse" color-interpolation-filters="sRGB">
<feFlood flood-opacity="0" result="BackgroundImageFix"/>
<feBlend mode="normal" in="SourceGraphic" in2="BackgroundImageFix" result="shape"/>
<feGaussianBlur stdDeviation="2" result="effect1_foregroundBlur"/>
</filter>
<filter id="filter1_d" x="0" y="0" width="36.249" height="47.0005" filterUnits="userSpaceOnUse" color-interpolation-filters="sRGB">
<feFlood flood-opacity="0" result="BackgroundImageFix"/>
<feColorMatrix in="SourceAlpha" type="matrix" values="0 0 0 0 0 0 0 0 0 0 0 0 0 0 0 0 0 0 127 0"/>
<feOffset dx="-4" dy="-4"/>
<feGaussianBlur stdDeviation="2"/>
<feColorMatrix type="matrix" values="0 0 0 0 0 0 0 0 0 0 0 0 0 0 0 0 0 0 0.25 0"/>
<feBlend mode="normal" in2="BackgroundImageFix" result="effect1_dropShadow"/>
<feBlend mode="normal" in="SourceGraphic" in2="effect1_dropShadow" result="shape"/>
</filter>
</defs>
</svg>
