<svg width="42" height="42" viewBox="0 0 42 42" fill="none" xmlns="http://www.w3.org/2000/svg">
<path d="M20.9997 0C9.402 0 0 9.40228 0 20.9997C0 32.597 9.402 42 20.9997 42C32.5973 42 42 32.597 42 20.9997C42 9.40228 32.5973 0 20.9997 0ZM30.0784 24.9938H21.1754C21.1453 24.9938 21.1173 24.9865 21.0874 24.9854C21.0576 24.9868 21.0298 24.9938 20.9995 24.9938C20.1974 24.9938 19.5471 24.3435 19.5471 23.5414V8.71501C19.5471 7.91293 20.1974 7.26262 20.9995 7.26262C21.8016 7.26262 22.4519 7.91293 22.4519 8.71501V22.089H30.0778C30.8799 22.089 31.5302 22.7393 31.5302 23.5414C31.5302 24.3435 30.8805 24.9938 30.0784 24.9938Z" fill="#334DA8"/>
</svg>
