<svg width="56" height="55" viewBox="0 0 56 55" fill="none" xmlns="http://www.w3.org/2000/svg">
<path d="M41.4197 3.85867C40.9708 1.65964 39.0214 -0.000976562 36.6897 -0.000976562C36.1567 -0.000976562 35.7241 0.430339 35.7241 0.963936C35.7241 1.49753 36.1567 1.92885 36.6897 1.92885C38.2866 1.92885 39.5862 3.22762 39.5862 4.82359C39.5862 6.41955 38.2866 7.71832 36.6897 7.71832C36.1567 7.71832 35.7241 8.14964 35.7241 8.68323C35.7241 9.21683 36.1567 9.64815 36.6897 9.64815C39.0204 9.64815 40.9708 7.98753 41.4197 5.7885H54.069V12.5429H1.93103V5.7885H18.3448C18.8778 5.7885 19.3103 5.35718 19.3103 4.82359C19.3103 4.28999 18.8778 3.85867 18.3448 3.85867H16.5914C16.9912 2.73744 18.0532 1.92885 19.3103 1.92885C20.9073 1.92885 22.2069 3.22762 22.2069 4.82359C22.2069 6.41955 20.9073 7.71832 19.3103 7.71832C18.7774 7.71832 18.3448 8.14964 18.3448 8.68323C18.3448 9.21683 18.7774 9.64815 19.3103 9.64815C21.9723 9.64815 24.1379 7.48385 24.1379 4.82359C24.1379 2.16332 21.9723 -0.000976562 19.3103 -0.000976562C16.9796 -0.000976562 15.0292 1.65964 14.5803 3.85867H0V54.999H56V3.85867H41.4197ZM28.9655 14.4727H40.5517V26.0517H28.9655V14.4727ZM40.5517 39.5604H28.9655V27.9815H40.5517V39.5604ZM15.4483 27.9815H27.0345V39.5604H15.4483V27.9815ZM15.4483 14.4727H27.0345V26.0517H15.4483V14.4727ZM1.93103 14.4727H13.5172V26.0517H1.93103V14.4727ZM1.93103 27.9815H13.5172V39.5604H1.93103V27.9815ZM1.93103 53.0692V41.4903H13.5172V53.0692H1.93103ZM15.4483 53.0692V41.4903H27.0345V53.0692H15.4483ZM28.9655 53.0692V41.4903H40.5517V53.0692H28.9655ZM54.069 53.0692H42.4828V41.4903H54.069V53.0692ZM54.069 39.5604H42.4828V27.9815H54.069V39.5604ZM42.4828 26.0517V14.4727H54.069V26.0517H42.4828Z" fill="#333333"/>
<path d="M25.1034 1.92885C26.7004 1.92885 28 3.22762 28 4.82359C28 6.41955 26.7004 7.71832 25.1034 7.71832C24.5705 7.71832 24.1379 8.14964 24.1379 8.68323C24.1379 9.21683 24.5705 9.64815 25.1034 9.64815C27.7654 9.64815 29.931 7.48385 29.931 4.82359C29.931 2.16332 27.7654 -0.000976562 25.1034 -0.000976562C24.5705 -0.000976562 24.1379 0.430339 24.1379 0.963936C24.1379 1.49753 24.5705 1.92885 25.1034 1.92885Z" fill="#333333"/>
<path d="M30.8966 1.92885C32.4935 1.92885 33.7931 3.22762 33.7931 4.82359C33.7931 6.41955 32.4935 7.71832 30.8966 7.71832C30.3636 7.71832 29.931 8.14964 29.931 8.68323C29.931 9.21683 30.3636 9.64815 30.8966 9.64815C33.5585 9.64815 35.7241 7.48385 35.7241 4.82359C35.7241 2.16332 33.5585 -0.000976562 30.8966 -0.000976562C30.3636 -0.000976562 29.931 0.430339 29.931 0.963936C29.931 1.49753 30.3636 1.92885 30.8966 1.92885Z" fill="#333333"/>
<path d="M30.2139 38.3128C30.4022 38.501 30.6494 38.5955 30.8966 38.5955C31.1437 38.5955 31.3909 38.501 31.5792 38.3128L34.7586 35.1353L37.9381 38.3128C38.1263 38.501 38.3735 38.5955 38.6207 38.5955C38.8679 38.5955 39.115 38.501 39.3033 38.3128C39.6808 37.9355 39.6808 37.3257 39.3033 36.9484L36.1239 33.771L39.3033 30.5935C39.6808 30.2162 39.6808 29.6064 39.3033 29.2291C38.9258 28.8518 38.3156 28.8518 37.9381 29.2291L34.7586 32.4066L31.5792 29.2291C31.2017 28.8518 30.5914 28.8518 30.2139 29.2291C29.8364 29.6064 29.8364 30.2162 30.2139 30.5935L33.3934 33.771L30.2139 36.9484C29.8364 37.3257 29.8364 37.9355 30.2139 38.3128Z" fill="#333333"/>
</svg>
