<svg width="56" height="56" viewBox="0 0 56 56" fill="none" xmlns="http://www.w3.org/2000/svg">
<path d="M52.1192 5.59902H37.3333V4.07116C37.3333 1.82556 35.5068 -0.000976562 33.2612 -0.000976562H22.7388C20.4932 -0.000976562 18.6667 1.82556 18.6667 4.07116V5.59902H3.8808C1.74067 5.59902 0 7.33969 0 9.47982V50.0808C0 51.6908 1.232 53.0049 2.8 53.1664V54.1482C2.8 55.1684 3.63067 55.999 4.64987 55.999H6.5492C7.56933 55.999 8.4 55.1684 8.4 54.1492V53.199H47.6V54.1492C47.6 55.1684 48.4307 55.999 49.4499 55.999H51.3492C52.3693 55.999 53.2 55.1684 53.2 54.1492V53.1673C54.768 53.0049 56 51.6917 56 50.0817V9.47982C56 7.33969 54.2593 5.59902 52.1192 5.59902ZM52.1192 7.46569C53.2299 7.46569 54.1333 8.36916 54.1333 9.47982V11.199H51.3333V9.33236H42V11.199H37.3333V7.46569H52.1192ZM43.8667 13.0657V11.199H46.6667V13.0657H43.8667ZM48.5333 11.199H49.4667V13.0657H48.5333V11.199ZM20.5333 4.07116C20.5333 2.85596 21.5236 1.86569 22.7388 1.86569H33.2603C34.4764 1.86569 35.4667 2.85596 35.4667 4.07116V11.199H33.6V5.25649C33.6 4.41556 32.9168 3.73236 32.0759 3.73236H23.9241C23.0832 3.73236 22.4 4.41556 22.4 5.25649V11.199H20.5333V4.07116ZM31.7333 11.199H24.2667V5.59902H31.7333V11.199ZM3.8808 7.46569H18.6667V11.199H14V9.33236H4.66667V11.199H1.86667V9.47982C1.86667 8.36916 2.77013 7.46569 3.8808 7.46569ZM6.53333 13.0657V11.199H7.46667V13.0657H6.53333ZM9.33333 11.199H12.1333V13.0657H9.33333V11.199ZM6.53333 54.1324L4.66667 54.1492V53.199H6.53333V54.1324ZM3.11827 51.3324C2.42853 51.3324 1.86667 50.7705 1.86667 50.0808V18.101C2.0216 18.1953 2.184 18.2774 2.352 18.3502C2.38187 18.3633 2.41453 18.3717 2.44533 18.3838C2.62547 18.4557 2.81213 18.5126 3.00533 18.5574C3.06507 18.5714 3.1248 18.5845 3.18547 18.5957C3.41133 18.6368 3.6428 18.6657 3.8808 18.6657H10.2667V51.3324H3.11827ZM12.1333 51.3324V18.6657H18.6667V51.3324H12.1333ZM20.5333 51.3324V18.6657H35.4667V51.3324H20.5333ZM37.3333 51.3324V18.6657H43.8667V51.3324H37.3333ZM51.3333 54.1324L49.4667 54.1492V53.199H51.3333V54.1324ZM54.1333 50.0808C54.1333 50.7705 53.5715 51.3324 52.8817 51.3324H45.7333V18.6657H52.1192C52.3581 18.6657 52.5887 18.6368 52.8155 18.5957C52.8761 18.5845 52.9359 18.5714 52.9956 18.5574C53.1879 18.5126 53.3755 18.4557 53.5556 18.3829C53.5864 18.3708 53.6181 18.3624 53.6489 18.3493C53.8169 18.2774 53.9793 18.1944 54.1343 18.1001L54.1333 50.0808ZM52.1192 16.799H3.8808C2.77013 16.799 1.86667 15.8956 1.86667 14.7849V13.0657H4.66667V14.9324H14V13.0657H42V14.9324H51.3333V13.0657H54.1333V14.7849C54.1333 15.8956 53.2299 16.799 52.1192 16.799Z" fill="#333333"/>
</svg>
