<svg width="64" height="58" viewBox="0 0 64 58" fill="none" xmlns="http://www.w3.org/2000/svg">
<path d="M60.5288 -0.000976562H3.47119C1.55713 -0.000976562 0 1.55098 0 3.45868V15.9853C0 16.506 0.423828 16.9289 0.946777 16.9289C1.46973 16.9289 1.89355 16.506 1.89355 15.9853V3.45868C1.89355 2.59194 2.60156 1.88629 3.47119 1.88629H60.5288C61.3989 1.88629 62.1064 2.59194 62.1064 3.45868V41.203C62.1064 42.0702 61.3984 42.7754 60.5288 42.7754H40.9277C40.9917 42.3442 41.0254 41.9033 41.0254 41.4541C41.0254 41.0054 40.9917 40.5645 40.9277 40.1333H53.207C53.73 40.1333 54.1538 39.7109 54.1538 39.1897C54.1538 36.7963 56.1074 34.8491 58.5088 34.8491C59.0317 34.8491 59.4556 34.4267 59.4556 33.9055V17.854C59.4556 17.3328 59.0317 16.9104 58.5088 16.9104C57.9858 16.9104 57.562 17.3328 57.562 17.854V33.0334C54.873 33.4427 52.7422 35.566 52.332 38.246H40.4302C39.1309 34.8662 35.8428 32.4587 32 32.4587C28.1572 32.4587 24.8691 34.8662 23.5698 38.246H11.668C11.2578 35.566 9.12695 33.4427 6.43799 33.0334V11.6282C9.12695 11.2189 11.2578 9.09565 11.668 6.41562H52.332C52.7427 9.09565 54.873 11.2189 57.562 11.6282V13.4532C57.562 13.9744 57.9863 14.3968 58.5088 14.3968C59.0317 14.3968 59.4556 13.9744 59.4556 13.4532V10.7561C59.4556 10.2349 59.0317 9.8125 58.5088 9.8125C56.1074 9.8125 54.1538 7.86538 54.1538 5.47199C54.1538 4.95078 53.73 4.52836 53.207 4.52836H10.793C10.27 4.52836 9.84619 4.95078 9.84619 5.47199C9.84619 7.86538 7.89258 9.8125 5.49121 9.8125C4.96826 9.8125 4.54443 10.2349 4.54443 10.7561V33.9055C4.54443 34.4267 4.96826 34.8491 5.49121 34.8491C7.89258 34.8491 9.84619 36.7963 9.84619 39.1897C9.84619 39.7109 10.27 40.1333 10.793 40.1333H23.0723C23.0083 40.565 22.9746 41.0059 22.9746 41.4546C22.9746 41.9033 23.0083 42.3442 23.0723 42.7758H3.47119C2.60107 42.7758 1.89355 42.0702 1.89355 41.203V20.373C1.89355 19.8518 1.46973 19.4294 0.946777 19.4294C0.423828 19.4294 0 19.8518 0 20.373V41.203C0 43.1107 1.55713 44.6626 3.47119 44.6626H23.5698C23.8892 45.4938 24.3291 46.2657 24.8677 46.9577V57.0554C24.8677 57.3698 25.0249 57.6632 25.2866 57.8384C25.5483 58.0136 25.8804 58.0477 26.1724 57.9289L32 55.5579L37.8276 57.9289C37.9429 57.9757 38.0645 57.999 38.1851 57.999C38.3706 57.999 38.5552 57.9445 38.7134 57.8384C38.9751 57.6632 39.1323 57.3698 39.1323 57.0554V54.3564C39.1323 53.8352 38.708 53.4128 38.1855 53.4128C37.6626 53.4128 37.2388 53.8352 37.2388 54.3564V55.6509L32.3579 53.6653C32.1284 53.5724 31.8716 53.5724 31.6421 53.6653L26.7612 55.6509V48.7729C28.2397 49.827 30.0479 50.45 32 50.45C33.9521 50.45 35.7603 49.827 37.2388 48.7729V49.9468C37.2388 50.468 37.6626 50.8904 38.1855 50.8904C38.708 50.8904 39.1323 50.468 39.1323 49.9468V46.9577C39.6709 46.2657 40.1108 45.4938 40.4302 44.6626H60.5288C62.4429 44.6626 64 43.1107 64 41.203V3.45868C64 1.55098 62.4429 -0.000976562 60.5288 -0.000976562ZM32 48.5627C28.0674 48.5627 24.8677 45.3741 24.8677 41.4546C24.8677 37.535 28.0674 34.3459 32 34.3459C35.9326 34.3459 39.1323 37.535 39.1323 41.4546C39.1323 45.3741 35.9326 48.5627 32 48.5627Z" fill="#333333"/>
<path d="M40.3315 12.4546C40.8545 12.4546 41.2783 12.0321 41.2783 11.5109C41.2783 10.9897 40.8545 10.5673 40.3315 10.5673H23.6685C23.1455 10.5673 22.7217 10.9897 22.7217 11.5109C22.7217 12.0321 23.1455 12.4546 23.6685 12.4546H40.3315Z" fill="#333333"/>
<path d="M46.6431 15.5998H17.3569C16.834 15.5998 16.4102 16.0223 16.4102 16.5435C16.4102 17.0647 16.834 17.4871 17.3569 17.4871H46.6431C47.166 17.4871 47.5898 17.0647 47.5898 16.5435C47.5898 16.0223 47.166 15.5998 46.6431 15.5998Z" fill="#333333"/>
<path d="M46.6431 20.6324H17.3569C16.834 20.6324 16.4102 21.0548 16.4102 21.576C16.4102 22.0972 16.834 22.5196 17.3569 22.5196H46.6431C47.166 22.5196 47.5898 22.0972 47.5898 21.576C47.5898 21.0548 47.166 20.6324 46.6431 20.6324Z" fill="#333333"/>
<path d="M46.6431 26.4197H42.0986C41.5757 26.4197 41.1519 26.8422 41.1519 27.3634C41.1519 27.8846 41.5757 28.307 42.0986 28.307H46.6431C47.166 28.307 47.5898 27.8846 47.5898 27.3634C47.5898 26.8422 47.166 26.4197 46.6431 26.4197Z" fill="#333333"/>
<path d="M17.3569 26.4197C16.834 26.4197 16.4102 26.8422 16.4102 27.3634C16.4102 27.8846 16.834 28.307 17.3569 28.307H21.9014C22.4243 28.307 22.8481 27.8846 22.8481 27.3634C22.8481 26.8422 22.4243 26.4197 21.9014 26.4197H17.3569Z" fill="#333333"/>
<path d="M32 36.4848C29.2505 36.4848 27.0137 38.7142 27.0137 41.4546C27.0137 44.1949 29.2505 46.4243 32 46.4243C34.7495 46.4243 36.9863 44.1949 36.9863 41.4546C36.9863 38.7142 34.7495 36.4848 32 36.4848ZM32 44.5371C30.2944 44.5371 28.9072 43.154 28.9072 41.4546C28.9072 39.7547 30.2944 38.3721 32 38.3721C33.7056 38.3721 35.0928 39.7547 35.0928 41.4546C35.0928 43.154 33.7056 44.5371 32 44.5371Z" fill="#333333"/>
<path d="M28.7812 27.3634C28.7812 29.1324 30.2251 30.5714 32 30.5714C33.7749 30.5714 35.2188 29.1324 35.2188 27.3634C35.2188 25.5944 33.7749 24.1553 32 24.1553C30.2251 24.1553 28.7812 25.5944 28.7812 27.3634ZM33.3257 27.3634C33.3257 28.0919 32.731 28.6846 32 28.6846C31.269 28.6846 30.6743 28.0919 30.6743 27.3634C30.6743 26.6348 31.269 26.0421 32 26.0421C32.731 26.0421 33.3257 26.6348 33.3257 27.3634Z" fill="#333333"/>
</svg>
