<svg width="57" height="57" viewBox="0 0 57 57" fill="none" xmlns="http://www.w3.org/2000/svg">
<path d="M56.8952 13.5082C56.699 12.7786 56.2204 12.1565 55.5655 11.7794C54.9102 11.4004 54.131 11.2979 53.4001 11.4941C52.6701 11.6908 52.0481 12.169 51.6711 12.824L51.1962 13.6506C50.7449 13.3913 50.1684 13.5439 49.9045 13.993L47.4919 18.1061L46.6654 17.6311C46.4465 17.5044 46.1859 17.4701 45.9419 17.536C45.6975 17.6023 45.4897 17.7628 45.364 17.9827C45.1066 18.4368 45.2634 19.0139 45.7156 19.2746L46.5421 19.7496L38.4684 33.743L36.4737 39.0729L35.5238 40.849C34.9678 41.8167 35.0271 43.0195 35.676 43.9272L33.5388 46.549L32.9405 45.0484C32.6706 44.3795 32.0459 43.9212 31.3275 43.8651C30.6086 43.8085 29.9199 44.1638 29.5493 44.7822L29.2075 45.3615L28.8847 41.5615C28.8105 40.6625 28.1144 39.9398 27.2193 39.8313C26.3237 39.7232 25.4759 40.2599 25.1897 41.1153L22.8532 48.1262C22.6899 48.622 22.957 49.1564 23.4514 49.3234C23.5442 49.3666 23.6439 49.3925 23.7459 49.399C24.1541 49.4004 24.5177 49.1402 24.6485 48.7533L26.9753 41.7424L27.3078 45.599C27.3765 46.4219 27.9678 47.1061 28.772 47.2926C29.5762 47.4791 30.4083 47.1247 30.8317 46.4164L31.1833 45.8365L31.7723 47.3283C32.0222 47.9569 32.5876 48.4054 33.2568 48.5051C33.9261 48.6049 34.5977 48.3409 35.0206 47.8126L37.2338 45.0104C37.4787 45.0744 37.731 45.1064 37.9842 45.1055C39.0023 45.1134 39.9475 44.5771 40.4632 43.699L41.413 42.1126L45.032 37.7142L53.1909 23.5496L54.0174 24.0246C54.2377 24.1507 54.3982 24.359 54.4636 24.6044C54.5294 24.8479 54.4951 25.1077 54.3689 25.3262L50.5696 31.9098C50.4263 32.126 50.3776 32.3913 50.4351 32.6446C50.4926 32.8974 50.6508 33.1159 50.8734 33.249C51.0923 33.3761 51.3529 33.4104 51.5969 33.3446C51.8413 33.2782 52.0491 33.1177 52.1748 32.8979L55.9741 26.3142C56.353 25.6588 56.4555 24.8795 56.2589 24.1484C56.0622 23.4183 55.5841 22.7962 54.9292 22.4191L54.1027 21.9441L56.4773 17.8305C56.7366 17.3792 56.584 16.8031 56.1355 16.5387L56.6104 15.7121C56.9995 15.0464 57.1025 14.2513 56.8952 13.5082ZM53.3143 13.774C53.44 13.5541 53.6487 13.3932 53.894 13.3278C54.138 13.2675 54.3958 13.3013 54.6157 13.4229C54.836 13.5486 54.9964 13.7573 55.0623 14.0022C55.1226 14.2462 55.0887 14.5041 54.9672 14.724L54.4923 15.5506L52.8394 14.6006L53.3143 13.774ZM40.3681 40.2984L38.4874 39.2055L39.8361 35.5957L42.828 37.3246L40.3681 40.2984ZM37.5186 43.0436C37.1174 42.7639 36.9941 42.2258 37.2338 41.799L37.7088 40.9729L39.3612 41.9229L38.8863 42.7397C38.7532 42.9707 38.5297 43.135 38.2695 43.1929C38.0093 43.2505 37.737 43.1967 37.5186 43.0436ZM43.911 35.7669L40.6246 33.8669L48.2233 20.6996L51.5097 22.5996L43.911 35.7669ZM52.4595 20.9561L49.1731 19.0561L51.0728 15.7691L54.3592 17.6691L52.4595 20.9561Z" fill="#333333"/>
<path d="M14.9882 42.5686L11.6262 45.9223L9.61247 43.9082C9.2419 43.5399 8.64362 43.5399 8.27305 43.9082C8.0931 44.0868 7.992 44.3294 7.992 44.5827C7.992 44.836 8.0931 45.079 8.27305 45.2572L10.2868 47.2713C10.643 47.6247 11.1244 47.8228 11.6262 47.8223C12.1308 47.8251 12.6164 47.627 12.9749 47.2713L16.3277 43.9082C16.6505 43.5311 16.6287 42.9694 16.278 42.6187C15.9269 42.2675 15.3653 42.2457 14.9882 42.5686Z" fill="#333333"/>
<path d="M3.79935 45.124C3.79935 49.5841 7.41412 53.199 11.873 53.199C16.3318 53.199 19.9466 49.5841 19.9466 45.124C19.9466 44.5994 19.5213 44.174 18.9968 44.174C18.4722 44.174 18.0469 44.5994 18.0469 45.124C18.0469 48.5344 15.2827 51.299 11.873 51.299C8.4632 51.299 5.69903 48.5344 5.69903 45.124C5.69903 41.7137 8.4632 38.949 11.873 38.949C13.2096 38.9453 14.5105 39.379 15.5773 40.1843C15.997 40.4993 16.5925 40.4139 16.9069 39.9941C17.2218 39.5743 17.137 38.9792 16.7172 38.6642C14.2708 36.8291 10.9973 36.5341 8.26238 37.9016C5.52696 39.2696 3.79935 42.0657 3.79935 45.124Z" fill="#333333"/>
<path d="M34.1942 7.59902C34.7187 7.59902 35.144 7.17412 35.144 6.64902C35.144 6.12439 34.7187 5.69902 34.1942 5.69902H9.49838C8.97383 5.69902 8.54854 6.12439 8.54854 6.64902V10.449C8.54854 10.9741 8.97383 11.399 9.49838 11.399H34.1942C34.7187 11.399 35.144 10.9741 35.144 10.449C35.144 9.92439 34.7187 9.49902 34.1942 9.49902H10.4482V7.59902H34.1942Z" fill="#333333"/>
<path d="M12.3479 13.299C11.8233 13.299 11.3981 13.7244 11.3981 14.249C11.3981 14.7741 11.8233 15.199 12.3479 15.199H31.3447C31.8692 15.199 32.2945 14.7741 32.2945 14.249C32.2945 13.7244 31.8692 13.299 31.3447 13.299H12.3479Z" fill="#333333"/>
<path d="M37.0437 19.949H16.1472C15.6227 19.949 15.1974 20.3744 15.1974 20.899C15.1974 21.4241 15.6227 21.849 16.1472 21.849H37.0437C37.5682 21.849 37.9935 21.4241 37.9935 20.899C37.9935 20.3744 37.5682 19.949 37.0437 19.949Z" fill="#333333"/>
<path d="M27.5453 26.599C27.5453 26.0744 27.12 25.649 26.5955 25.649H7.5987C7.07416 25.649 6.64887 26.0744 6.64887 26.599C6.64887 27.1241 7.07416 27.549 7.5987 27.549H26.5955C27.12 27.549 27.5453 27.1241 27.5453 26.599Z" fill="#333333"/>
<path d="M37.0437 25.649H30.3948C29.8703 25.649 29.445 26.0744 29.445 26.599C29.445 27.1241 29.8703 27.549 30.3948 27.549H37.0437C37.5682 27.549 37.9935 27.1241 37.9935 26.599C37.9935 26.0744 37.5682 25.649 37.0437 25.649Z" fill="#333333"/>
<path d="M17.0971 32.299C17.6216 32.299 18.0469 31.8741 18.0469 31.349C18.0469 30.8244 17.6216 30.399 17.0971 30.399H7.5987C7.07416 30.399 6.64887 30.8244 6.64887 31.349C6.64887 31.8741 7.07416 32.299 7.5987 32.299H17.0971Z" fill="#333333"/>
<path d="M20.8964 32.299H27.5453C28.0698 32.299 28.4951 31.8741 28.4951 31.349C28.4951 30.8244 28.0698 30.399 27.5453 30.399H20.8964C20.3719 30.399 19.9466 30.8244 19.9466 31.349C19.9466 31.8741 20.3719 32.299 20.8964 32.299Z" fill="#333333"/>
<path d="M42.7427 43.699C42.2182 43.699 41.7929 44.1244 41.7929 44.649V54.149C41.7929 54.6741 41.3676 55.099 40.843 55.099H2.84951C2.32497 55.099 1.89968 54.6741 1.89968 54.149V2.84902C1.89968 2.32439 2.32497 1.89902 2.84951 1.89902H40.843C41.3676 1.89902 41.7929 2.32439 41.7929 2.84902V20.6903C41.7929 21.2149 42.2182 21.6403 42.7427 21.6403C43.2673 21.6403 43.6925 21.2149 43.6925 20.6903V2.84902C43.6925 1.27512 42.4167 -0.000976562 40.843 -0.000976562H2.84951C1.27588 -0.000976562 0 1.27512 0 2.84902V54.149C0 55.7234 1.27588 56.999 2.84951 56.999H40.843C42.4167 56.999 43.6925 55.7234 43.6925 54.149V44.649C43.6925 44.1244 43.2673 43.699 42.7427 43.699Z" fill="#333333"/>
</svg>
