<svg width="61" height="61" viewBox="0 0 61 61" fill="none" xmlns="http://www.w3.org/2000/svg">
<path d="M41.8529 34.3932L33.556 29.3045C33.4549 29.2424 33.3386 29.2004 33.2213 29.182L30.6237 28.7245C30.1432 28.6397 29.6712 28.9697 29.5865 29.4494C29.5017 29.929 29.832 30.4001 30.3125 30.4847L32.7638 30.9165L40.9156 35.9162C41.3135 36.1603 41.8593 36.0418 42.1235 35.6582C42.4068 35.2464 42.2789 34.6548 41.8529 34.3932Z" fill="#333333"/>
<path d="M60.7587 34.6798C60.4209 34.3191 59.8545 34.3001 59.4932 34.637L55.8636 38.023L39.2325 21.6433L60.7167 1.54564C61.0774 1.20811 61.0958 0.642553 60.7578 0.282509C60.4197 -0.0775344 59.853 -0.0958821 59.4923 0.241525L37.3288 20.9746C36.9633 21.3165 36.9556 21.9117 37.3122 22.2629L38.7832 23.7116L38.3137 24.1254L28.4809 23.2803C28.3292 23.2674 28.1715 23.2935 28.033 23.3573L20.2422 26.8992C20.2195 26.8933 20.1968 26.8876 20.1733 26.8834L15.6919 26.094L16.0543 25.1694C16.2334 24.7121 16.0096 24.1962 15.553 24.014L1.22811 18.2946C0.768823 18.111 0.247945 18.3341 0.0643726 18.7925C-0.119319 19.2507 0.103999 19.7708 0.563169 19.9541L14.0629 25.3443L6.10746 45.6374L1.19445 43.9004C0.728241 43.7358 0.216673 43.9792 0.0516013 44.4446C-0.113471 44.9098 0.130616 45.4206 0.596709 45.5853L6.32661 47.611C6.77635 47.77 7.28553 47.5373 7.45919 47.0941L8.78872 43.7027L12.2724 45.6513L11.8882 46.273C10.7995 48.0343 11.3492 50.3513 13.1138 51.4381C14.0469 52.0129 15.2053 52.1492 16.248 51.8122C16.4152 52.8969 17.0538 53.8648 17.9901 54.4414C18.9233 55.0162 20.0815 55.1525 21.1244 54.8155C21.2917 55.9002 21.93 56.868 22.8664 57.4447C23.8024 58.0212 24.9547 58.1569 26.0009 57.8199C26.1684 58.9041 26.8066 59.8715 27.7428 60.448C29.1033 61.2859 30.9042 61.1607 32.1306 60.1347C32.4397 59.876 32.7058 59.5673 32.9175 59.2247L33.5283 58.2368L34.0311 58.5451C35.3935 59.3806 37.1939 59.252 38.4184 58.2237C38.727 57.9644 38.9925 57.6552 39.2036 57.3122C39.6233 56.6304 39.797 55.8662 39.7511 55.1223C40.0354 55.1906 40.3264 55.2273 40.62 55.2273C41.9203 55.2273 43.1503 54.5428 43.8308 53.4374C44.2407 52.7714 44.4279 52.0121 44.3804 51.2479C44.664 51.3158 44.9544 51.3522 45.2471 51.3522C46.5474 51.3522 47.7775 50.6678 48.4578 49.5624C48.868 48.8959 49.0552 48.1361 49.0073 47.3713C49.294 47.4394 49.5851 47.475 49.8749 47.475C51.1394 47.475 52.3759 46.8395 53.085 45.6876C54.1704 43.9241 53.6163 41.6082 51.8497 40.5247L51.2362 40.1485L53.2938 38.0025L55.2185 39.898C55.556 40.2303 56.1124 40.2377 56.4586 39.9148L60.7162 35.943C61.0773 35.606 61.0964 35.0404 60.7587 34.6798ZM16.7646 49.2762C16.1942 50.1987 14.9783 50.4861 14.054 49.917C13.1296 49.3478 12.8418 48.1341 13.4119 47.2115L18.4266 39.0991C18.9863 38.1936 20.1873 37.8975 21.1043 38.4383C22.0532 38.9983 22.3151 40.2968 21.7454 41.2186L16.7646 49.2762ZM21.6407 52.2795C21.0705 53.202 19.8545 53.4895 18.9303 52.9203C18.0172 52.3579 17.724 51.1276 18.2883 50.2148L22.2999 43.7248C22.8596 42.8195 24.0606 42.5233 24.9776 43.0641C25.9265 43.624 26.1884 44.9225 25.6185 45.8443L21.6407 52.2795ZM26.5174 55.2828C26.241 55.7297 25.8068 56.0426 25.295 56.1636C24.7828 56.2848 24.2544 56.1993 23.8067 55.9237C22.8937 55.3612 22.6005 54.1308 23.1648 53.2181L26.1736 48.3506C26.7332 47.4451 27.9343 47.1491 28.8512 47.6898C29.8001 48.2498 30.062 49.5483 29.4923 50.4701L26.5174 55.2828ZM33.3657 55.0961L31.3937 58.2862C30.8302 59.1976 29.5977 59.4901 28.6831 58.927C27.7701 58.3646 27.4769 57.1341 28.0412 56.2214L30.047 52.9765C30.6066 52.0712 31.8077 51.7747 32.7246 52.3158C33.6735 52.8757 33.9354 54.1743 33.3657 55.0961ZM49.6753 39.191L45.2373 36.469C44.8257 36.2166 44.2587 36.3518 44.0059 36.7626C43.753 37.1734 43.8884 37.7394 44.3 37.9918L50.912 42.0472C51.8373 42.6148 52.1276 43.8279 51.5591 44.7516C50.9905 45.6752 49.775 45.9649 48.8497 45.3974L41.7582 41.0478C41.337 40.7893 40.7856 40.921 40.5268 41.3414C40.2681 41.7619 40.3997 42.3123 40.8209 42.5706L46.2851 45.922C47.1993 46.4827 47.4947 47.7126 46.9322 48.6264C46.3705 49.5389 45.1383 49.8336 44.2229 49.2723L39.2709 46.235C38.8496 45.9766 38.2983 46.1081 38.0395 46.5286C37.7808 46.949 37.9124 47.4994 38.3336 47.7577L41.6582 49.7968C42.5723 50.3576 42.8678 51.5873 42.3053 52.5012C41.7436 53.4136 40.5114 53.7086 39.596 53.1471C39.596 53.1471 36.6722 51.3556 36.6448 51.3424C36.236 51.1454 35.7362 51.2856 35.4936 51.6797C35.2349 52.1002 35.3665 52.6506 35.7877 52.9089L37.0313 53.6716C37.9566 54.2392 38.2467 55.4523 37.6782 56.376C37.1165 57.2885 35.8844 57.5833 34.9689 57.0219L34.4691 56.7152L34.89 56.0341C35.4282 55.1634 35.5952 54.0911 35.3481 53.0923C35.1044 52.1065 34.4964 51.2842 33.6364 50.7768C32.9654 50.381 32.2147 50.2206 31.4838 50.2698C31.6211 49.6813 31.6218 49.061 31.4747 48.4664C31.231 47.4806 30.623 46.6583 29.763 46.1509C29.092 45.755 28.3413 45.5946 27.6104 45.6438C27.9796 44.0607 27.2999 42.3573 25.8896 41.525C25.2186 41.1292 24.4679 40.9689 23.737 41.0179C24.1062 39.4348 23.4265 37.7314 22.0162 36.8991C20.2653 35.8661 17.9719 36.4319 16.9036 38.1599L13.2143 44.1284L9.44758 42.0222L15.0261 27.7918L18.0635 28.3268C17.1996 29.3979 16.9567 30.9059 17.5655 32.2404C18.1954 33.621 19.564 34.4379 20.9932 34.4378C21.5137 34.4378 22.0423 34.3294 22.5462 34.1004L27.7893 31.7166C28.2333 31.5148 28.4353 30.9762 28.233 30.533C28.0308 30.0899 27.4912 29.8881 27.0471 30.0901L21.8039 32.4738C20.8157 32.9232 19.6452 32.486 19.1949 31.4994C18.7448 30.5128 19.1826 29.3446 20.1711 28.8953L28.5612 25.081L38.5417 25.9389C38.5673 25.9412 38.593 25.9422 38.6185 25.9422C38.8358 25.9422 39.0467 25.8632 39.211 25.7186L40.0606 24.9698L52.0186 36.7467L49.6753 39.191Z" fill="#333333"/>
</svg>
