<svg width="59" height="60" viewBox="0 0 59 60" fill="none" xmlns="http://www.w3.org/2000/svg">
<path d="M58.9874 12.937C58.982 12.8496 58.965 12.7627 58.9364 12.6802C58.9257 12.6479 58.9174 12.6172 58.9038 12.5859C58.8553 12.4771 58.7877 12.3779 58.7047 12.293L46.7676 0.292969C46.6831 0.208984 46.584 0.141113 46.4752 0.0927735C46.4456 0.0791015 46.4155 0.0708008 46.3849 0.0600586C46.3004 0.0307617 46.2129 0.0131836 46.124 0.0078125C46.107 0.0112305 46.0891 0 46.0682 0H16.2255C13.4802 0.00341798 11.2551 2.23975 11.2517 5V12.3599C4.41326 15.3916 0 22.1963 0 29.71C0 37.2236 4.41326 44.0283 11.2517 47.0601V55C11.2551 57.7603 13.4802 59.9966 16.2255 60H54.0262C56.772 59.9966 58.9971 57.7603 59 55V13C59 12.978 58.9893 12.959 58.9874 12.937ZM55.6038 12H48.0577C47.5083 12 47.0629 11.5522 47.0629 11V3.41406L55.6038 12ZM2.0104 29.71C2.00457 25.1992 3.78425 20.8721 6.95698 17.6826C10.1297 14.4932 14.4346 12.7041 18.9212 12.71C19.4866 12.71 20.0476 12.7378 20.6014 12.792C28.2932 13.5562 34.4837 19.479 35.6232 27.1641C35.7554 28.0063 35.8248 28.8574 35.8311 29.71C35.8384 32.9126 34.9379 36.0508 33.2359 38.7578C31.8861 40.9209 30.0671 42.749 27.9149 44.105C22.7036 47.395 16.1259 47.5796 10.7403 44.5864C5.35458 41.5938 2.01137 35.896 2.0104 29.71ZM30.4746 44.7319C30.6106 44.626 30.7451 44.521 30.8782 44.4121C31.3693 44.0146 31.8395 43.5923 32.2878 43.147C32.7308 42.6963 33.1509 42.2241 33.5463 41.731C33.6546 41.5972 33.759 41.4609 33.8644 41.3242C33.9849 41.166 34.1156 41.0161 34.2307 40.855L42.7109 49.3901C43.2724 49.9492 43.5886 50.7109 43.5886 51.5054C43.5886 52.3003 43.2724 53.0615 42.7109 53.6211C41.5364 54.7622 39.6737 54.7622 38.4992 53.6211L30.0078 45.1001C30.1681 44.9829 30.3182 44.853 30.4746 44.7319ZM54.0262 58H16.2255C14.5774 58 13.2412 56.6567 13.2412 55V47.8408C13.3029 47.8608 13.3675 47.874 13.4302 47.8931C13.5895 47.9419 13.7508 47.981 13.912 48.0259C14.2841 48.126 14.659 48.2261 15.0379 48.3008C15.2239 48.3398 15.41 48.376 15.5979 48.4092C15.9768 48.4761 16.3591 48.5288 16.7428 48.5732C16.9142 48.5928 17.0833 48.6172 17.2552 48.6318C17.8065 48.6792 18.3612 48.71 18.9212 48.71C22.2096 48.7124 25.4406 47.8472 28.2913 46.2002L37.0867 55.0332C38.3209 56.3911 40.1978 56.9585 41.9721 56.5093C43.7469 56.0605 45.1332 54.6685 45.581 52.8848C46.0293 51.1011 45.4669 49.2139 44.1165 47.9722L35.325 39.1289C36.9633 36.2632 37.8245 33.0151 37.8216 29.71C37.8216 29.0767 37.7915 28.4482 37.7303 27.8252C37.3058 23.4561 35.3818 19.3721 32.2888 16.2739C28.7513 12.6987 23.9378 10.6953 18.9212 10.71C18.3612 10.71 17.8065 10.7412 17.2552 10.7881C17.0833 10.8032 16.9128 10.8271 16.7418 10.8472C16.3591 10.8901 15.9788 10.9448 15.5999 11.0112C15.4109 11.0444 15.2225 11.0806 15.035 11.1201C14.661 11.1982 14.2899 11.29 13.9217 11.3921C13.7566 11.437 13.5914 11.4771 13.4243 11.5269C13.3627 11.5459 13.3 11.5591 13.2383 11.5791V5C13.2383 3.34326 14.5745 2 16.2226 2H45.0734V11C45.0734 12.6567 46.4096 14 48.0577 14H57.0105V55C57.0105 56.6567 55.6748 58 54.0262 58Z" fill="#333333"/>
<path d="M41.0944 7C41.0944 6.44775 40.649 6 40.0996 6H18.215C17.6657 6 17.2203 6.44775 17.2203 7C17.2203 7.55225 17.6657 8 18.215 8H40.0996C40.649 8 41.0944 7.55225 41.0944 7Z" fill="#333333"/>
<path d="M52.0367 24H40.0996C39.5503 24 39.1049 24.4478 39.1049 25C39.1049 25.5522 39.5503 26 40.0996 26H52.0367C52.5861 26 53.0315 25.5522 53.0315 25C53.0315 24.4478 52.5861 24 52.0367 24Z" fill="#333333"/>
<path d="M52.0367 30H40.0996C39.5503 30 39.1049 30.4478 39.1049 31C39.1049 31.5522 39.5503 32 40.0996 32H52.0367C52.5861 32 53.0315 31.5522 53.0315 31C53.0315 30.4478 52.5861 30 52.0367 30Z" fill="#333333"/>
<path d="M53.0315 37C53.0315 36.4478 52.5861 36 52.0367 36H39.1049C38.5555 36 38.1101 36.4478 38.1101 37C38.1101 37.5522 38.5555 38 39.1049 38H52.0367C52.5861 38 53.0315 37.5522 53.0315 37Z" fill="#333333"/>
<path d="M53.0315 43C53.0315 42.4478 52.5861 42 52.0367 42H43.0839C42.5346 42 42.0891 42.4478 42.0891 43C42.0891 43.5522 42.5346 44 43.0839 44H52.0367C52.5861 44 53.0315 43.5522 53.0315 43Z" fill="#333333"/>
<path d="M41.0944 13C41.0944 12.4478 40.649 12 40.0996 12H32.1416C31.5922 12 31.1468 12.4478 31.1468 13C31.1468 13.5522 31.5922 14 32.1416 14H40.0996C40.649 14 41.0944 13.5522 41.0944 13Z" fill="#333333"/>
<path d="M53.0315 19C53.0315 18.4478 52.5861 18 52.0367 18H37.1154C36.566 18 36.1206 18.4478 36.1206 19C36.1206 19.5522 36.566 20 37.1154 20H52.0367C52.5861 20 53.0315 19.5522 53.0315 19Z" fill="#333333"/>
<path d="M15.2307 25H22.194C22.7434 25 23.1888 24.5522 23.1888 24C23.1888 23.4478 22.7434 23 22.194 23H15.2307C14.6814 23 14.236 23.4478 14.236 24C14.236 24.5522 14.6814 25 15.2307 25Z" fill="#333333"/>
<path d="M27.1678 30C27.1678 29.4478 26.7224 29 26.1731 29H11.2517C10.7024 29 10.257 29.4478 10.257 30C10.257 30.5522 10.7024 31 11.2517 31H26.1731C26.7224 31 27.1678 30.5522 27.1678 30Z" fill="#333333"/>
<path d="M22.194 35H15.2307C14.6814 35 14.236 35.4478 14.236 36C14.236 36.5522 14.6814 37 15.2307 37H22.194C22.7434 37 23.1888 36.5522 23.1888 36C23.1888 35.4478 22.7434 35 22.194 35Z" fill="#333333"/>
<path d="M26.0021 42.8999C28.4283 41.6011 30.4401 39.6392 31.8055 37.2412C31.8842 37.103 31.9696 36.9692 32.0435 36.8291C32.0818 36.7568 32.112 36.6821 32.1489 36.6099C32.2999 36.3179 32.4471 36.0259 32.5773 35.7271C32.7079 35.4282 32.8104 35.144 32.9168 34.8501C32.9474 34.7651 32.9863 34.6821 33.0164 34.5962C35.546 27.2012 32.0002 19.0928 24.8699 15.9673C17.739 12.8418 9.41618 15.748 5.74802 22.644C4.59346 24.8164 3.99214 27.2427 3.99797 29.7061C3.98874 34.9912 6.75006 39.8901 11.2648 42.5981C15.7796 45.3066 21.3795 45.4233 26.0021 42.9058V42.8999ZM12.722 41.1182C11.6393 40.5249 10.6475 39.7778 9.77658 38.8999C9.17235 38.293 8.62883 37.6284 8.15331 36.915C7.91822 36.5615 7.70207 36.1987 7.50341 35.8262C4.50943 30.1431 6.09579 23.1133 11.2362 19.2856C16.3766 15.458 23.5283 15.9814 28.0635 20.5171C32.0799 24.5928 32.9833 30.8252 30.2915 35.8838V35.8921C29.1054 38.123 27.2868 39.9497 25.0671 41.1411C21.2163 43.2441 16.5665 43.2368 12.722 41.1221V41.1182Z" fill="#333333"/>
<path d="M54.0262 48C53.4769 48 53.0315 48.4478 53.0315 49V53C53.0315 53.5522 52.5861 54 52.0367 54H48.0577C47.5083 54 47.0629 54.4478 47.0629 55C47.0629 55.5522 47.5083 56 48.0577 56H52.0367C53.6852 56 55.021 54.6567 55.021 53V49C55.021 48.4478 54.5756 48 54.0262 48Z" fill="#333333"/>
</svg>
