<svg width="57" height="62" viewBox="0 0 57 62" fill="none" xmlns="http://www.w3.org/2000/svg">
<path d="M45.4068 56.1926L6.76271 56.187C6.22824 56.187 5.79661 55.7527 5.79661 55.2181V0.968839C5.79661 0.432855 6.22824 0 6.76271 0H39.6102C39.8663 0 40.1126 0.101709 40.2932 0.283839L46.0898 6.09119C46.2715 6.27332 46.3729 6.51837 46.3729 6.77619V55.2238C46.3729 55.4816 46.2715 55.7276 46.0898 55.9088C45.9082 56.09 45.6639 56.1926 45.4068 56.1926ZM7.72881 54.2493L44.4407 54.255V7.17735L39.2101 1.93768H7.72881V54.2493Z" fill="#333333"/>
<path d="M42.5113 59.0963L3.86724 59.0906C3.33277 59.0906 2.90114 58.6564 2.90114 58.1218V3.87252C2.90114 3.33653 3.33277 2.90368 3.86724 2.90368H6.76271C7.29671 2.90368 7.72881 3.33653 7.72881 3.87252C7.72881 4.40803 7.29671 4.84136 6.76271 4.84136H4.83334V57.153L41.5452 57.1586V55.2181C41.5452 54.6821 41.9768 54.2493 42.5113 54.2493C43.0458 54.2493 43.4774 54.6821 43.4774 55.2181V58.1275C43.4774 58.3853 43.376 58.6313 43.1944 58.8125C43.0128 58.9937 42.7684 59.0963 42.5113 59.0963Z" fill="#333333"/>
<path d="M39.6102 62L0.966102 61.9939C0.431632 61.9939 0 61.56 0 61.025V6.77619C0 6.24021 0.431632 5.80735 0.966102 5.80735H3.86158C4.39557 5.80735 4.82768 6.24021 4.82768 6.77619C4.82768 7.3117 4.39557 7.74503 3.86158 7.74503H1.9322V60.0562L38.6441 60.0623V58.1218C38.6441 57.5858 39.0757 57.153 39.6102 57.153C40.1442 57.153 40.5763 57.5858 40.5763 58.1218V61.0312C40.5763 61.2885 40.4748 61.535 40.2932 61.7162C40.1116 61.8973 39.8673 62 39.6102 62Z" fill="#333333"/>
<path d="M45.4068 7.74503H39.6102C39.0757 7.74503 38.6441 7.3117 38.6441 6.77619C38.6441 6.24021 39.0757 5.80735 39.6102 5.80735H45.4068C45.9408 5.80735 46.3729 6.24021 46.3729 6.77619C46.3729 7.3117 45.9408 7.74503 45.4068 7.74503Z" fill="#333333"/>
<path d="M39.6102 7.74503C39.0757 7.74503 38.6441 7.3117 38.6441 6.77619V0.968839C38.6441 0.432855 39.0757 0 39.6102 0C40.1442 0 40.5763 0.432855 40.5763 0.968839V6.77619C40.5763 7.3117 40.1442 7.74503 39.6102 7.74503Z" fill="#333333"/>
<path d="M53.1356 13.5519C52.6011 13.5519 52.1695 13.1191 52.1695 12.5831C52.1695 12.0485 51.7364 11.6142 51.2034 11.6142C50.6699 11.6142 50.2373 12.0485 50.2373 12.5831C50.2373 13.1191 49.8052 13.5519 49.2712 13.5519C48.7367 13.5519 48.3051 13.1191 48.3051 12.5831C48.3051 10.9808 49.6052 9.67656 51.2034 9.67656C52.8011 9.67656 54.1017 10.9808 54.1017 12.5831C54.1017 13.1191 53.6696 13.5519 53.1356 13.5519Z" fill="#333333"/>
<path d="M49.2712 46.4924C48.7367 46.4924 48.3051 46.0596 48.3051 45.5236V12.5831C48.3051 12.0476 48.7367 11.6142 49.2712 11.6142C49.8052 11.6142 50.2373 12.0476 50.2373 12.5831V45.5236C50.2373 46.0596 49.8052 46.4924 49.2712 46.4924Z" fill="#333333"/>
<path d="M53.1356 46.4924C52.6011 46.4924 52.1695 46.0596 52.1695 45.5236V12.5831C52.1695 12.0476 52.6011 11.6142 53.1356 11.6142C53.6696 11.6142 54.1017 12.0476 54.1017 12.5831V45.5236C54.1017 46.0596 53.6696 46.4924 53.1356 46.4924Z" fill="#333333"/>
<path d="M51.2043 49.3989C50.8921 49.3989 50.585 49.248 50.3996 48.968L48.4674 46.0615C48.1706 45.6158 48.2905 45.015 48.7348 44.7175C49.1792 44.4213 49.7783 44.5415 50.075 44.9862L52.0072 47.8927C52.3039 48.3383 52.1841 48.9391 51.7393 49.2362C51.5742 49.3469 51.3878 49.3989 51.2043 49.3989Z" fill="#333333"/>
<path d="M51.2024 49.3989C51.0189 49.3989 50.8321 49.346 50.667 49.2362C50.2227 48.9391 50.1028 48.3383 50.3996 47.8927L52.3318 44.9862C52.6266 44.5415 53.2252 44.4213 53.6715 44.7175C54.1163 45.015 54.2361 45.6158 53.9394 46.0615L52.0072 48.968C51.8218 49.248 51.5143 49.3989 51.2024 49.3989Z" fill="#333333"/>
<path d="M51.2034 50.3678C50.6689 50.3678 50.2373 49.9349 50.2373 49.3989V48.4301C50.2373 47.8946 50.6689 47.4613 51.2034 47.4613C51.7374 47.4613 52.1695 47.8946 52.1695 48.4301V49.3989C52.1695 49.9349 51.7374 50.3678 51.2034 50.3678Z" fill="#333333"/>
<path d="M53.1356 44.5548H49.2712C48.7367 44.5548 48.3051 44.1219 48.3051 43.5859C48.3051 43.0504 48.7367 42.6171 49.2712 42.6171H53.1356C53.6696 42.6171 54.1017 43.0504 54.1017 43.5859C54.1017 44.1219 53.6696 44.5548 53.1356 44.5548Z" fill="#333333"/>
<path d="M56.0339 16.4584C55.4994 16.4584 55.0678 16.0256 55.0678 15.4896C55.0678 14.955 54.6348 14.5208 54.1017 14.5208C53.5672 14.5208 53.1356 14.0879 53.1356 13.5519C53.1356 13.0164 53.5672 12.5831 54.1017 12.5831C55.6994 12.5831 57 13.8873 57 15.4896C57 16.0256 56.5679 16.4584 56.0339 16.4584Z" fill="#333333"/>
<path d="M56.0339 28.0845C55.4994 28.0845 55.0678 27.6516 55.0678 27.1157V15.4896C55.0678 14.9541 55.4994 14.5208 56.0339 14.5208C56.5679 14.5208 57 14.9541 57 15.4896V27.1157C57 27.6516 56.5679 28.0845 56.0339 28.0845Z" fill="#333333"/>
<path d="M54.1017 14.5208H53.1356C52.6011 14.5208 52.1695 14.0879 52.1695 13.5519C52.1695 13.0164 52.6011 12.5831 53.1356 12.5831H54.1017C54.6357 12.5831 55.0678 13.0164 55.0678 13.5519C55.0678 14.0879 54.6357 14.5208 54.1017 14.5208Z" fill="#333333"/>
<path d="M53.1356 23.2403H49.2712C48.7367 23.2403 48.3051 22.8074 48.3051 22.2715C48.3051 21.736 48.7367 21.3026 49.2712 21.3026H53.1356C53.6696 21.3026 54.1017 21.736 54.1017 22.2715C54.1017 22.8074 53.6696 23.2403 53.1356 23.2403Z" fill="#333333"/>
<path d="M38.6441 26.153H13.5254C12.991 26.153 12.5593 25.7196 12.5593 25.1841C12.5593 24.6481 12.991 24.2153 13.5254 24.2153H38.6441C39.1781 24.2153 39.6102 24.6481 39.6102 25.1841C39.6102 25.7196 39.1781 26.153 38.6441 26.153Z" fill="#333333"/>
<path d="M38.6441 30.9972H13.5254C12.991 30.9972 12.5593 30.5638 12.5593 30.0283C12.5593 29.4923 12.991 29.0595 13.5254 29.0595H38.6441C39.1781 29.0595 39.6102 29.4923 39.6102 30.0283C39.6102 30.5638 39.1781 30.9972 38.6441 30.9972Z" fill="#333333"/>
<path d="M38.6441 35.8414H13.5254C12.991 35.8414 12.5593 35.408 12.5593 34.8725C12.5593 34.3365 12.991 33.9037 13.5254 33.9037H38.6441C39.1781 33.9037 39.6102 34.3365 39.6102 34.8725C39.6102 35.408 39.1781 35.8414 38.6441 35.8414Z" fill="#333333"/>
<path d="M26.0847 40.6855H13.5254C12.991 40.6855 12.5593 40.2522 12.5593 39.7167C12.5593 39.1807 12.991 38.7479 13.5254 38.7479H26.0847C26.6187 38.7479 27.0508 39.1807 27.0508 39.7167C27.0508 40.2522 26.6187 40.6855 26.0847 40.6855Z" fill="#333333"/>
<path d="M38.6441 49.4051H31.8814C31.3469 49.4051 30.9153 48.9718 30.9153 48.4363C30.9153 47.9003 31.3469 47.4674 31.8814 47.4674H38.6441C39.1781 47.4674 39.6102 47.9003 39.6102 48.4363C39.6102 48.9718 39.1781 49.4051 38.6441 49.4051Z" fill="#333333"/>
<path d="M33.8136 51.3428C33.2791 51.3428 32.8475 50.9094 32.8475 50.3739V46.4986C32.8475 45.9626 33.2791 45.5297 33.8136 45.5297C34.3476 45.5297 34.7797 45.9626 34.7797 46.4986V50.3739C34.7797 50.9094 34.3476 51.3428 33.8136 51.3428Z" fill="#333333"/>
<path d="M33.8126 51.3428C33.6107 51.3428 33.4079 51.2799 33.2338 51.1488C32.8069 50.8281 32.7201 50.2207 33.0404 49.7935L35.9387 45.9181C36.2585 45.4891 36.8642 45.4034 37.2907 45.7242C37.7176 46.0449 37.8044 46.6523 37.4836 47.08L34.5853 50.9553C34.3971 51.2089 34.107 51.3428 33.8126 51.3428Z" fill="#333333"/>
<path d="M36.7119 51.3428C36.1774 51.3428 35.7458 50.9094 35.7458 50.3739V46.4986C35.7458 45.9626 36.1774 45.5297 36.7119 45.5297C37.2459 45.5297 37.678 45.9626 37.678 46.4986V50.3739C37.678 50.9094 37.2459 51.3428 36.7119 51.3428Z" fill="#333333"/>
<path d="M21.2542 19.3905H13.5254C12.991 19.3905 12.5593 18.9572 12.5593 18.4217C12.5593 17.8857 12.991 17.4528 13.5254 17.4528H21.2542C21.7882 17.4528 22.2203 17.8857 22.2203 18.4217C22.2203 18.9572 21.7882 19.3905 21.2542 19.3905Z" fill="#333333"/>
<path d="M17.3898 19.3905C16.8554 19.3905 16.4237 18.9572 16.4237 18.4217V9.70305C16.4237 9.16707 16.8554 8.73421 17.3898 8.73421C17.9238 8.73421 18.3559 9.16707 18.3559 9.70305V18.4217C18.3559 18.9562 17.9238 19.3905 17.3898 19.3905Z" fill="#333333"/>
<path d="M21.2542 11.6407H13.5254C12.991 11.6407 12.5593 11.2074 12.5593 10.6719C12.5593 10.1359 12.991 9.70305 13.5254 9.70305H21.2542C21.7882 9.70305 22.2203 10.1359 22.2203 10.6719C22.2203 11.2074 21.7882 11.6407 21.2542 11.6407Z" fill="#333333"/>
<path d="M22.2203 14.5472H20.2881C19.7537 14.5472 19.322 14.1139 19.322 13.5784C19.322 13.0424 19.7537 12.6096 20.2881 12.6096H22.2203C22.7543 12.6096 23.1864 13.0424 23.1864 13.5784C23.1864 14.1139 22.7543 14.5472 22.2203 14.5472Z" fill="#333333"/>
<path d="M14.4915 14.5472H12.5593C12.0249 14.5472 11.5932 14.1139 11.5932 13.5784C11.5932 13.0424 12.0249 12.6096 12.5593 12.6096H14.4915C15.0255 12.6096 15.4576 13.0424 15.4576 13.5784C15.4576 14.1139 15.0255 14.5472 14.4915 14.5472Z" fill="#333333"/>
</svg>
