<svg width="69" height="60" viewBox="0 0 69 60" fill="none" xmlns="http://www.w3.org/2000/svg">
<path d="M64.706 4.08339C60.1119 0.371121 53.3199 0.817312 49.2437 5.09789C46.9617 7.49379 45.8167 10.7609 46.102 14.0603C46.2952 16.296 45.394 17.7472 44.1132 19.606V12.4563C44.1132 9.02902 41.5121 6.20015 38.1882 5.85599C37.8023 2.56348 35.0081 0 31.6279 0H9.41992C4.22565 0 0 4.24357 0 9.45988V47.5437C0 50.971 2.60109 53.7999 5.92496 54.144C6.3103 57.4365 9.10459 60 12.4853 60H37.5054C41.1488 60 44.1132 57.0231 44.1132 53.3642V52.6463C45.3045 53.5762 45.7735 54.5188 47.0564 54.4411C47.6118 54.4068 48.1209 54.1572 48.4894 53.7385L50.6983 51.229C52.2923 49.4178 52.1217 46.6418 50.3187 45.0404L46.4805 41.6337L48.0882 39.8072C49.3717 38.3492 49.2343 36.1145 47.7824 34.8256V34.8262L47.5123 34.5861C48.7647 30.7713 51.9133 27.7405 54.417 25.8252C55.423 25.0554 56.6453 24.6119 57.8588 24.577C61.0179 24.485 64.029 23.0698 66.12 20.6945C70.4504 15.7742 69.8319 8.2244 64.706 4.08339ZM45.9973 36.8541C46.3358 37.1544 46.3673 37.6751 46.0683 38.0145L44.4606 39.8416L32.6702 29.3757C34.3637 27.4534 34.2789 27.5417 34.3363 27.4889C34.6559 27.1965 35.1281 27.2055 35.4339 27.4772C35.4476 27.4894 44.8017 35.7926 45.9973 36.8541ZM41.4179 50.2541V53.3642C41.4179 55.5307 39.6627 57.2933 37.5049 57.2933H12.4853C10.328 57.2933 8.57237 55.5307 8.57237 53.3642C8.57237 51.9427 8.57237 28.4526 8.57237 27.0051C8.57237 26.2581 7.96908 25.6523 7.22524 25.6523C6.48087 25.6523 5.87758 26.2581 5.87758 27.0051V51.4045C4.06772 51.0598 2.69532 49.4595 2.69532 47.5437V9.45988C2.69532 5.73599 5.71175 2.70675 9.41992 2.70675H31.6279C33.5067 2.70675 35.0807 4.04374 35.4555 5.82057H12.4853C8.8419 5.82057 5.87758 8.79747 5.87758 12.4563V16.1792C5.87758 16.9267 6.48087 17.5326 7.22524 17.5326C7.96908 17.5326 8.57237 16.9267 8.57237 16.1792V12.4563C8.57237 10.2899 10.328 8.52679 12.4853 8.52679H37.5049C39.6627 8.52679 41.4179 10.2899 41.4179 12.4563V22.8588C40.2776 23.9844 38.9473 24.9999 37.4886 25.6888C37.3317 25.5973 36.4399 24.4617 34.6754 24.5712C32.5133 24.7049 31.8463 26.4627 30.6508 27.583C26.581 23.9733 26.7984 24.1567 26.6326 24.0251C24.8153 22.5749 22.1858 22.8123 20.6508 24.5574L18.4413 27.067C17.6791 27.9329 17.7601 29.2546 18.623 30.0201L41.4179 50.2541ZM48.6789 49.4363L46.8748 51.4859L20.8661 28.3987C22.8523 26.1476 22.6765 26.3311 22.8007 26.218C23.4287 25.6454 24.391 25.6391 25.0275 26.2037C39.8538 39.3642 41.7542 41.0512 48.5331 47.0684C49.2232 47.6811 49.2885 48.7432 48.6789 49.4363ZM64.1006 18.9018C62.4776 20.7458 60.233 21.8004 57.7803 21.8713C55.9831 21.9236 54.2554 22.5464 52.7835 23.6724C50.1982 25.6502 46.9943 28.7169 45.3513 32.6682C44.758 32.1416 40.5387 28.396 39.6501 27.6073C41.0799 26.7889 42.4486 25.7014 43.7368 24.3571C43.7641 24.328 43.7899 24.2978 43.8152 24.2667C45.4219 22.5718 46.6895 20.7103 47.6276 19.0948C48.5468 17.5109 48.9479 15.6891 48.7868 13.8266C48.1172 6.07644 57.0675 1.38562 63.0167 6.19222C66.966 9.3827 67.3903 15.1641 64.1006 18.9018Z" fill="#333333"/>
<path d="M7.22524 20.2409C6.48087 20.2409 5.87758 20.8483 5.87758 21.5959C5.87758 22.3434 6.48087 22.9492 7.22524 22.9492C7.96961 22.9492 8.5729 22.3429 8.5729 21.5959V21.5927C8.5729 20.8452 7.96961 20.2409 7.22524 20.2409Z" fill="#333333"/>
<path d="M10.8613 43.5713V51.0064C10.8613 52.7557 12.279 54.1794 14.0209 54.1794H27.2953C29.0378 54.1794 30.4555 52.7557 30.4555 51.0064V43.5713C30.4555 41.8214 29.0378 40.3983 27.2953 40.3983H14.0209C12.279 40.3983 10.8613 41.8219 10.8613 43.5713ZM27.7602 43.5713V51.0064C27.7602 51.2633 27.5517 51.4727 27.2953 51.4727H14.0209C13.7651 51.4727 13.5566 51.2633 13.5566 51.0064V43.5713C13.5566 43.3144 13.7651 43.105 14.0209 43.105H27.2953C27.5517 43.105 27.7602 43.3144 27.7602 43.5713Z" fill="#333333"/>
</svg>
