<svg width="67" height="61" viewBox="0 0 67 61" fill="none" xmlns="http://www.w3.org/2000/svg">
<path d="M36.9034 53.1563H35.5948V51.8491C35.5948 48.2449 32.6596 45.3127 29.0517 45.3127H9.16042C5.5525 45.3127 2.61732 48.2449 2.61732 51.8491V53.1563H1.30859C0.585858 53.1563 0 53.7417 0 54.4636V59.6927C0 60.4147 0.585858 61 1.30859 61H36.9033C37.626 61 38.2119 60.4147 38.2119 59.6927V54.4636C38.212 53.7417 37.6261 53.1563 36.9034 53.1563ZM5.23451 51.8491C5.23451 49.6867 6.99561 47.9273 9.16042 47.9273H29.0516C31.2162 47.9273 32.9775 49.6867 32.9775 51.8491V53.1563H5.23451V51.8491ZM2.61732 58.3855V55.771H35.5948V58.3855H2.61732Z" fill="#333333"/>
<path d="M65.852 54.305L37.3516 25.8341L42.2914 20.8994C42.7876 21.0752 43.3082 21.1636 43.8289 21.1636C45.0018 21.1636 46.1747 20.7177 47.0676 19.8257C48.8535 18.0417 48.8535 15.139 47.0676 13.355L35.0383 1.33801C33.2524 -0.446005 30.3466 -0.446005 28.5609 1.33801C27.2715 2.62607 26.9136 4.49708 27.486 6.10933L22.5462 11.0441L21.4358 9.93483C19.905 8.40578 17.4145 8.40578 15.8837 9.93483C14.3531 11.464 14.3531 13.9519 15.8837 15.4811L16.9941 16.5904L12.0541 21.5251C10.4402 20.9532 8.56723 21.3109 7.27788 22.5989C5.49204 24.3829 5.49204 27.2856 7.27788 29.0696L19.3073 41.0866C20.2001 41.9786 21.3731 42.4245 22.546 42.4245C23.7189 42.4245 24.8918 41.9786 25.7848 41.0866C27.0742 39.7985 27.4321 37.9275 26.8597 36.3153L31.7995 31.3806L60.3 59.8515C61.0654 60.616 62.0708 60.9983 63.0761 60.9983C64.0813 60.9983 65.0867 60.616 65.8521 59.8515C67.3827 58.3221 67.3826 55.8342 65.852 54.305ZM40.8678 36.7417L42.7184 34.8931L44.569 36.7419L42.7184 38.5906L40.8678 36.7417ZM32.7248 26.7585L29.9487 23.9853C29.4377 23.4749 28.609 23.4749 28.098 23.9853C27.587 24.4958 27.587 25.3237 28.098 25.8341L30.8741 28.6073L29.0233 30.4561L24.3968 25.8344C24.1494 25.5873 23.821 25.4513 23.4716 25.4513C23.1222 25.4513 22.7937 25.5873 22.5464 25.8344C22.0361 26.3442 22.0361 27.173 22.5464 27.6828L27.1724 32.3051L25.3221 34.1535L14.218 23.0609L29.0234 8.27098L40.1275 19.3636L32.7248 26.7585ZM30.4115 3.18682C30.7941 2.80449 31.2967 2.6134 31.7995 2.6134C32.3023 2.6134 32.8049 2.80463 33.1875 3.18682L45.2169 15.2038C45.9823 15.9683 45.9823 17.2124 45.2169 17.9769C44.4516 18.7414 43.2061 18.7414 42.441 17.9769L30.4116 5.9599C29.6461 5.19551 29.6461 3.95135 30.4115 3.18682ZM17.7343 13.6323C17.224 13.1226 17.224 12.2933 17.7343 11.7836C17.9894 11.5288 18.3245 11.4013 18.6596 11.4013C18.9948 11.4013 19.3299 11.5287 19.5849 11.7836L20.6953 12.8929L18.8447 14.7415L17.7343 13.6323ZM23.9341 39.2377C23.1688 40.0022 21.9233 40.0022 21.1581 39.2377L9.12875 27.2207C8.36336 26.4561 8.36336 25.2121 9.12875 24.4476C9.51138 24.0653 10.014 23.8742 10.5168 23.8742C11.0195 23.8742 11.5222 24.0654 11.9048 24.4476L23.9342 36.4646C24.6993 37.2291 24.6993 38.4731 23.9341 39.2377ZM35.5009 27.6829L40.8678 33.0443L39.0172 34.8929L33.6502 29.5316L35.5009 27.6829ZM64.0012 58.0025C63.491 58.5123 62.6609 58.5123 62.1506 58.0025L44.5691 40.4394L46.4198 38.5907L64.0012 56.1538C64.5116 56.6635 64.5116 57.4928 64.0012 58.0025Z" fill="#333333"/>
<path d="M19.7695 21.7531C19.4201 21.7531 19.0916 21.8891 18.8443 22.1362C18.3339 22.6461 18.3339 23.4762 18.8443 23.986C19.0916 24.2317 19.4201 24.3676 19.7695 24.3676C20.1202 24.3676 20.4486 24.2317 20.6959 23.986C21.205 23.4762 21.205 22.6461 20.6959 22.1362C20.4486 21.8891 20.1202 21.7531 19.7695 21.7531Z" fill="#333333"/>
</svg>
