<svg width="60" height="60" viewBox="0 0 60 60" fill="none" xmlns="http://www.w3.org/2000/svg">
<path d="M55.0762 0C54.8622 0 54.2449 0 54.1387 0H18.7478C18.1005 0 17.5759 0.524778 17.5759 1.1719C17.5759 1.81903 18.1005 2.3438 18.7478 2.3438H50.886C50.4227 3.09417 50.1546 3.97709 50.1546 4.92187V20.2717C50.1546 20.9188 50.6792 21.4436 51.3264 21.4436C51.9737 21.4436 52.4983 20.9188 52.4983 20.2717V16.6405H58.8262C59.4734 16.6405 59.9981 16.1158 59.9981 15.4686V4.92187C59.9979 2.20798 57.7901 0 55.0762 0ZM57.6543 14.2967H52.4982V4.92187C52.4982 3.50024 53.6547 2.3438 55.0762 2.3438C56.4977 2.3438 57.6542 3.50036 57.6542 4.92187L57.6543 14.2967Z" fill="#333333"/>
<path d="M58.7193 47.7569L51.0646 40.102C51.948 38.3004 52.4449 36.2764 52.4449 34.1382C52.4449 26.6426 46.3469 20.5446 38.8516 20.5446C31.3563 20.5446 25.2583 26.6426 25.2583 34.1382C25.2583 35.8519 25.5779 37.4922 26.1593 39.0037L24.7876 40.3754L19.1458 34.7334C18.9261 34.5137 18.628 34.3902 18.3172 34.3902C18.0064 34.3902 17.7083 34.5137 17.4886 34.7334L16.1696 36.0524V25.3515C16.1696 24.7044 15.645 24.1796 14.9978 24.1796C14.3505 24.1796 13.8259 24.7044 13.8259 25.3515V38.3962L3.23039 48.9921C2.77277 49.4497 2.77277 50.1918 3.23039 50.6495C3.45925 50.8783 3.75914 50.9928 4.05902 50.9928C4.3589 50.9928 4.6589 50.8783 4.88765 50.6495L13.8259 41.7111V50.1562H8.67058C8.02335 50.1562 7.4987 50.681 7.4987 51.3282V55.0781C7.4987 57.792 9.70651 60 12.4205 60H47.5764C50.2904 60 52.4983 57.792 52.4983 55.0779V54.0718C53.3181 54.8677 54.3988 55.3052 55.553 55.3052C55.5603 55.3052 55.5677 55.3051 55.5751 55.3051C56.7554 55.2994 57.8641 54.8374 58.6973 54.0042C60.4256 52.2755 60.4355 49.4731 58.7193 47.7569ZM38.8515 22.8883C45.0546 22.8883 50.1011 27.935 50.1011 34.1382C50.1011 40.3414 45.0546 45.3881 38.8515 45.3881C34.5919 45.3881 30.8779 43.0085 28.9687 39.5088L35.741 32.7364V35.3951C35.741 36.0422 36.2656 36.567 36.9128 36.567C37.5601 36.567 38.0847 36.0422 38.0847 35.3951V29.7709C38.0847 29.1238 37.5601 28.599 36.9128 28.599H31.2887C30.6414 28.599 30.1168 29.1238 30.1168 29.7709C30.1168 30.418 30.6414 30.9428 31.2887 30.9428H34.2201L28.0122 37.1508C27.7453 36.1916 27.602 35.1814 27.602 34.1383C27.6018 27.9349 32.6484 22.8883 38.8515 22.8883ZM12.4203 57.6558C10.9987 57.6557 9.84233 56.4992 9.84233 55.0777V52.4996H42.6544V53.9059C42.6544 53.9442 42.6566 53.982 42.6602 54.0194C42.6566 54.0568 42.6544 54.0947 42.6544 54.133V55.0777C42.6544 56.0226 42.9226 56.9056 43.386 57.656L12.4203 57.6558ZM50.1545 55.0773C50.1545 56.4992 48.9979 57.6557 47.5764 57.6557C46.1547 57.6557 44.9982 56.4991 44.9982 55.0774V54.1328C44.9982 54.0944 44.9961 54.0566 44.9924 54.0192C44.9961 53.9818 44.9982 53.944 44.9982 53.9056V51.3276C44.9982 50.6804 44.4735 50.1557 43.8263 50.1557H16.1696V39.3668L18.3171 37.2193L23.9588 42.8613C24.1786 43.081 24.4767 43.2045 24.7875 43.2045C25.0983 43.2045 25.3964 43.081 25.6161 42.8613L27.2546 41.2227C29.6464 45.1238 33.95 47.7317 38.8515 47.7317C40.9792 47.7317 42.9943 47.2397 44.7892 46.3643L50.1545 51.7298V55.0773ZM57.04 52.3464C56.6465 52.7399 56.1221 52.9583 55.5636 52.9608C55.5602 52.961 55.5566 52.961 55.5531 52.961C55.0028 52.961 54.4898 52.7507 54.1076 52.3685L46.8565 45.1172C47.9869 44.2908 48.9853 43.2943 49.814 42.1658L57.062 49.414C57.8644 50.2165 57.8546 51.5321 57.04 52.3464Z" fill="#333333"/>
<path d="M46.271 32.9664C45.6237 32.9664 45.0991 33.4912 45.0991 34.1383C45.0991 37.5833 42.2964 40.386 38.8515 40.386C38.2043 40.386 37.6796 40.9106 37.6796 41.5579C37.6796 42.205 38.2043 42.7298 38.8515 42.7298C43.5888 42.7298 47.4428 38.8756 47.4428 34.1383C47.4428 33.4912 46.9182 32.9664 46.271 32.9664Z" fill="#333333"/>
<path d="M30.0138 20.1561H28.9442V12.3046C28.9442 11.6575 28.4196 11.1327 27.7723 11.1327H22.3909C21.7436 11.1327 21.219 11.6575 21.219 12.3046V20.1561H19.3351V7.49994C19.3351 6.85282 18.8104 6.32804 18.1632 6.32804H13.0071C12.3599 6.32804 11.8352 6.85282 11.8352 7.49994V20.156H9.96057V14.9998C9.96057 14.3526 9.43593 13.8279 8.7887 13.8279H3.63269C2.98547 13.8279 2.46082 14.3526 2.46082 14.9998V20.156H1.17187C0.524648 20.156 0 20.6808 0 21.3279C0 21.975 0.524648 22.4998 1.17187 22.4998H30.0139C30.6611 22.4998 31.1858 21.975 31.1858 21.3279C31.1857 20.6808 30.661 20.1561 30.0138 20.1561ZM7.61694 20.1561H4.80456V16.1718H7.61694V20.1561ZM16.9916 20.1561H14.1792V8.67184H16.9916V20.1561ZM26.6006 20.1561H23.5629V13.4765H26.6006V20.1561Z" fill="#333333"/>
<path d="M39.545 6.32804H30.4678C29.8206 6.32804 29.2959 6.85282 29.2959 7.49994C29.2959 8.14707 29.8206 8.67184 30.4678 8.67184H39.545C40.1922 8.67184 40.7169 8.14707 40.7169 7.49994C40.7167 6.85282 40.1922 6.32804 39.545 6.32804Z" fill="#333333"/>
<path d="M46.1703 6.67129C45.9523 6.45332 45.65 6.32792 45.3418 6.32792C45.0336 6.32792 44.7312 6.4532 44.5133 6.67129C44.2953 6.88938 44.1699 7.19161 44.1699 7.49982C44.1699 7.80803 44.2953 8.11038 44.5133 8.32824C44.7312 8.54622 45.0336 8.67173 45.3418 8.67173C45.65 8.67173 45.9523 8.54633 46.1703 8.32824C46.3883 8.11038 46.5137 7.80803 46.5137 7.49982C46.5137 7.19173 46.3883 6.88938 46.1703 6.67129Z" fill="#333333"/>
<path d="M35.0063 11.4843H33.0848C32.4376 11.4843 31.9129 12.0091 31.9129 12.6562C31.9129 13.3033 32.4376 13.8281 33.0848 13.8281H35.0063C35.6536 13.8281 36.1782 13.3033 36.1782 12.6562C36.1782 12.0091 35.6536 11.4843 35.0063 11.4843Z" fill="#333333"/>
<path d="M45.3415 11.4843H39.545C38.8978 11.4843 38.3731 12.0091 38.3731 12.6562C38.3731 13.3033 38.8978 13.8281 39.545 13.8281H45.3415C45.9888 13.8281 46.5134 13.3033 46.5134 12.6562C46.5134 12.0091 45.9888 11.4843 45.3415 11.4843Z" fill="#333333"/>
<path d="M2.00144 51.8785C1.78347 51.6605 1.48113 51.535 1.17293 51.535C0.863554 51.535 0.562382 51.6604 0.344414 51.8785C0.125273 52.0963 0.00105469 52.3987 0.00105469 52.7069C0.00105469 53.0151 0.125273 53.3175 0.344414 53.5354C0.562382 53.7534 0.863554 53.8788 1.17293 53.8788C1.48113 53.8788 1.7823 53.7535 2.00144 53.5354C2.21941 53.3175 2.3448 53.0151 2.3448 52.7069C2.3448 52.3986 2.21941 52.0962 2.00144 51.8785Z" fill="#333333"/>
</svg>
