<svg width="60" height="60" viewBox="0 0 60 60" fill="none" xmlns="http://www.w3.org/2000/svg">
<path d="M6.32452 45.0091C5.90887 45.0924 5.57058 45.3932 5.43966 45.7965C5.30874 46.1993 5.40533 46.6415 5.6928 46.9532L7.60168 49.0214L7.27301 51.8166C7.22357 52.2377 7.4053 52.6525 7.74817 52.9015C8.09103 53.1505 8.54193 53.1949 8.92691 53.0182L11.4835 51.8418L14.0406 53.0182C14.1967 53.0901 14.3638 53.1253 14.5299 53.1253C14.7735 53.1253 15.0152 53.0493 15.2189 52.9015C15.5617 52.6525 15.7435 52.2377 15.694 51.8166L15.3654 49.0214L17.2742 46.9532C17.5617 46.6415 17.6583 46.1993 17.5278 45.796C17.3965 45.3932 17.0582 45.092 16.6425 45.0091L13.8827 44.4575L12.5052 42.0029C12.2979 41.6335 11.9074 41.4046 11.4835 41.4046C11.0596 41.4046 10.6687 41.6335 10.4613 42.0029L9.08438 44.4575L6.32452 45.0091ZM10.8646 46.0748L11.4835 44.972L12.1029 46.0752C12.27 46.3733 12.5593 46.5838 12.8953 46.6507L14.1353 46.8988L13.2775 47.828C13.0459 48.0798 12.9351 48.4199 12.9749 48.7601L13.1228 50.0162L11.9733 49.4874C11.6625 49.3446 11.305 49.3446 10.9942 49.4874L9.84472 50.0162L9.99258 48.7601C10.0324 48.4199 9.92163 48.0798 9.68954 47.8285L8.83169 46.8988L10.0722 46.6507C10.4078 46.5838 10.6971 46.3733 10.8646 46.0748Z" fill="#333333"/>
<path d="M54.5605 11.2661C54.4296 10.8628 54.0913 10.5621 53.6756 10.4792L50.9158 9.92761L49.5384 7.47306C49.331 7.10364 48.9405 6.87476 48.5166 6.87476C48.0927 6.87476 47.7018 7.10364 47.4944 7.47306L46.1175 9.92761L43.3572 10.4792C42.9415 10.5621 42.6032 10.8628 42.4723 11.2661C42.3414 11.669 42.438 12.1116 42.7255 12.4234L44.6343 14.4916L44.3057 17.2867C44.2562 17.7078 44.438 18.1226 44.7808 18.3716C45.1237 18.6206 45.5741 18.665 45.9596 18.4883L48.5162 17.3119L51.0732 18.4883C51.2293 18.5602 51.3964 18.5954 51.5626 18.5954C51.8061 18.5954 52.0483 18.5199 52.2515 18.3716C52.5948 18.1226 52.7761 17.7078 52.7267 17.2871L52.3985 14.4916L54.3069 12.4234C54.5948 12.1116 54.6914 11.669 54.5605 11.2661ZM50.3106 13.2982C50.0785 13.5495 49.9677 13.8896 50.008 14.2297L50.1554 15.4858L49.0064 14.9571C48.8508 14.8857 48.6837 14.85 48.5166 14.85C48.3491 14.85 48.182 14.8857 48.0268 14.9571L46.8774 15.4858L47.0252 14.2293C47.0651 13.8896 46.9543 13.549 46.7222 13.2977L45.8648 12.3684L47.1053 12.1203C47.4404 12.0535 47.7302 11.8429 47.8977 11.5444L48.5166 10.4412L49.1355 11.5444C49.3031 11.8429 49.5924 12.0535 49.9279 12.1203L51.1685 12.3684L50.3106 13.2982Z" fill="#333333"/>
<path d="M0.979667 35.309L5.5065 36.063C5.57196 36.0735 5.6365 36.079 5.70013 36.079C6.26272 36.079 6.7594 35.6725 6.85507 35.0993C6.96127 34.4608 6.53006 33.857 5.89147 33.7508L1.36465 32.9968C0.725608 32.8902 0.122275 33.3223 0.016074 33.9604C-0.0901272 34.599 0.341086 35.2028 0.979667 35.309Z" fill="#333333"/>
<path d="M51.5743 43.2535C51.8861 42.7436 52.066 42.1439 52.066 41.5035C52.066 39.6482 50.5567 38.1384 48.701 38.1384H44.6997C44.691 38.1384 44.6823 38.1389 44.6736 38.1389H42.3985C42.0474 38.1389 41.7228 37.9796 41.5081 37.7017C41.2935 37.4243 41.2211 37.0705 41.3095 36.7313L42.3408 32.7647C42.6516 31.5699 42.3971 30.3244 41.6418 29.3475C40.8865 28.3702 39.7453 27.8099 38.5103 27.8099H38.2054C37.7659 27.8099 37.3636 28.0557 37.1631 28.4471L33.5861 35.4175C33.1036 36.3586 32.411 37.1826 31.5774 37.8253V37.6843C31.5774 37.0371 31.0524 36.5125 30.4056 36.5125H22.4757L15.2097 35.3026C14.5706 35.1959 13.9678 35.6276 13.8611 36.2662C13.7549 36.9043 14.1861 37.5081 14.8247 37.6143L21.2068 38.6772V57.6562H1.17238C0.525106 57.6562 0.000510031 58.1813 0.000510031 58.8281C0.000510031 59.4754 0.525106 60 1.17238 60H30.4056C31.0528 60 31.5774 59.4754 31.5774 58.8281V58.0257H42.8604C42.8727 58.0261 42.8851 58.0261 42.8975 58.0261H46.8988C48.7541 58.0261 50.2638 56.5169 50.2638 54.6615C50.2638 54.1246 50.1374 53.6169 49.9127 53.166C50.8969 52.5782 51.5565 51.5025 51.5565 50.2757C51.5565 49.7387 51.4302 49.2306 51.2058 48.7801C52.1896 48.1924 52.8497 47.1166 52.8497 45.8893C52.8497 44.8227 52.3507 43.8706 51.5743 43.2535ZM29.2337 57.6562H23.5506V38.8562H29.2337V57.6562ZM49.4851 46.9106H48.1919C47.5447 46.9106 47.0201 47.4352 47.0201 48.0825C47.0201 48.7298 47.5447 49.2544 48.1919 49.2544C48.755 49.2544 49.2132 49.7126 49.2132 50.2757C49.2132 50.8387 48.755 51.2965 48.1919 51.2965H46.8988C46.2519 51.2965 45.7269 51.8211 45.7269 52.4684C45.7269 53.1156 46.2519 53.6402 46.8988 53.6402C47.4623 53.6402 47.92 54.0985 47.92 54.6615C47.92 55.2241 47.4623 55.6823 46.8988 55.6823H42.9345C42.9222 55.6819 42.9098 55.6819 42.8975 55.6819H31.5774V40.5948C33.3252 39.6907 34.7726 38.241 35.6717 36.4873L38.8975 30.2003C39.2482 30.2859 39.5608 30.4873 39.7879 30.7808C40.0955 31.179 40.1999 31.6871 40.0726 32.1747L39.0417 36.1412C38.7689 37.1881 38.9923 38.2794 39.6542 39.1355C40.3161 39.9915 41.3163 40.4827 42.3989 40.4827H48.7014C49.2645 40.4827 49.7227 40.9404 49.7227 41.5035C49.7227 42.0665 49.2645 42.5248 48.7014 42.5248C48.0546 42.5248 47.5296 43.0494 47.5296 43.6966C47.5296 44.3435 48.0546 44.8685 48.7014 44.8685H49.4851C50.0482 44.8685 50.5064 45.3263 50.5064 45.8893C50.5064 46.4524 50.0482 46.9106 49.4851 46.9106Z" fill="#333333"/>
<path d="M59.0203 24.691L38.7932 21.3228V2.34376H58.8281C59.4749 2.34376 59.9999 1.81916 59.9999 1.17188C59.9999 0.5246 59.4749 0 58.8281 0H29.5944C28.9476 0 28.4226 0.5246 28.4226 1.17188V1.97435H17.1396C17.1277 1.97435 17.1154 1.97389 17.103 1.97389H13.1012C11.2459 1.97389 9.73668 3.4836 9.73668 5.33893C9.73668 5.87543 9.86303 6.38355 10.0873 6.834C9.1036 7.42223 8.44351 8.49752 8.44351 9.72479C8.44351 10.2618 8.56985 10.7694 8.79415 11.2199C7.81042 11.8081 7.15033 12.8838 7.15033 14.1107C7.15033 15.1772 7.64929 16.1299 8.42611 16.7465C8.11392 17.2569 7.93402 17.8561 7.93402 18.4965C7.93402 20.3523 9.44372 21.8616 11.299 21.8616H15.3003C15.309 21.8616 15.3177 21.8616 15.3264 21.8611H17.6015C17.9526 21.8611 18.2772 22.0204 18.4919 22.2983C18.7065 22.5757 18.7789 22.9295 18.6905 23.2692L17.6592 27.2357C17.3484 28.4305 17.6029 29.6756 18.3582 30.6525C19.1135 31.6298 20.2552 32.1901 21.4897 32.1901H21.7946C22.2341 32.1901 22.6364 31.9443 22.8374 31.5534L26.4139 24.5825C26.8964 23.6414 27.589 22.8178 28.4226 22.1747V22.3157C28.4226 22.9629 28.9476 23.4875 29.5944 23.4875H37.5243L58.6354 27.0032C58.7008 27.0142 58.7654 27.0192 58.8294 27.0192C59.392 27.0192 59.8887 26.6127 59.9839 26.0396C60.0901 25.401 59.6589 24.7977 59.0203 24.691ZM28.4226 19.4052C26.6748 20.3097 25.2274 21.759 24.3283 23.5127L21.1025 29.8001C20.7523 29.7145 20.4396 29.5131 20.2121 29.2192C19.9045 28.821 19.8006 28.3129 19.9274 27.8253L20.9587 23.8588C21.2311 22.8119 21.0077 21.7206 20.3463 20.8645C19.6843 20.0085 18.6837 19.5173 17.6015 19.5173H15.3003C15.2916 19.5173 15.2829 19.5173 15.2738 19.5178H11.299C10.736 19.5178 10.2778 19.0596 10.2778 18.4965C10.2778 17.9335 10.736 17.4757 11.299 17.4757C11.9458 17.4757 12.4709 16.9511 12.4709 16.3038C12.4709 15.6565 11.9458 15.1319 11.299 15.1319H10.5153C9.95229 15.1319 9.49407 14.6737 9.49407 14.1107C9.49407 13.5476 9.95229 13.0898 10.5153 13.0898H11.8081C12.4553 13.0898 12.9799 12.5652 12.9799 11.918C12.9799 11.2707 12.4553 10.7461 11.8081 10.7461C11.245 10.7461 10.7868 10.2878 10.7868 9.72479C10.7868 9.16174 11.245 8.70352 11.8081 8.70352H13.1012C13.7481 8.70352 14.2731 8.17892 14.2731 7.53163C14.2731 6.88481 13.7481 6.35975 13.1012 6.35975C12.5382 6.35975 12.08 5.90198 12.08 5.33893C12.08 4.77588 12.5382 4.31765 13.1012 4.31765H17.0659C17.0778 4.31811 17.0902 4.31857 17.1025 4.31857H28.4226V19.4052ZM30.7663 2.34376H36.4494V21.1438H30.7663V2.34376Z" fill="#333333"/>
<path d="M9.36819 36.4255C9.63965 36.8402 10.1693 37.0357 10.6463 36.9071C11.1063 36.783 11.4501 36.382 11.5069 35.9096C11.565 35.4234 11.2977 34.9405 10.86 34.7249C10.4215 34.5088 9.87906 34.5935 9.52704 34.9332C9.12558 35.3214 9.0592 35.9618 9.36819 36.4255Z" fill="#333333"/>
</svg>
