<svg width="62" height="62" viewBox="0 0 62 62" fill="none" xmlns="http://www.w3.org/2000/svg">
<path d="M58.9 0H3.1C1.3879 0 0 1.3879 0 3.1V48.5667C0 50.2788 1.3879 51.6667 3.1 51.6667H27.9V49.6H3.1C2.52934 49.6 2.06667 49.1373 2.06667 48.5667V3.1C2.06667 2.52934 2.52934 2.06667 3.1 2.06667H58.9C59.4707 2.06667 59.9333 2.52934 59.9333 3.1V48.5667C59.9333 49.1373 59.4707 49.6 58.9 49.6H54.7667V51.6667H58.9C60.6121 51.6667 62 50.2788 62 48.5667V3.1C62 1.3879 60.6121 0 58.9 0Z" fill="#333333"/>
<path d="M55.8 22.7333H48.5667V19.6333C48.5667 19.0627 48.104 18.6 47.5333 18.6H38.2333V15.5C38.2333 14.9293 37.7707 14.4667 37.2 14.4667H19.6333V11.3667C19.6333 10.796 19.1707 10.3333 18.6 10.3333H6.2C5.62934 10.3333 5.16667 10.796 5.16667 11.3667V15.5C5.16667 16.0707 5.62934 16.5333 6.2 16.5333H13.4333V19.6333C13.4333 20.204 13.896 20.6667 14.4667 20.6667H29.9667V23.7667C29.9667 24.3373 30.4293 24.8 31 24.8H42.3667V27.9C42.3667 28.4707 42.8293 28.9333 43.4 28.9333H55.8C56.3707 28.9333 56.8333 28.4707 56.8333 27.9V23.7667C56.8333 23.196 56.3707 22.7333 55.8 22.7333ZM7.23333 14.4667V12.4H17.5667V14.4667H7.23333ZM15.5 18.6V16.5333H36.1667V18.6H15.5ZM32.0333 22.7333V20.6667H46.5V22.7333H32.0333ZM54.7667 26.8667H44.4333V24.8H54.7667V26.8667Z" fill="#333333"/>
<path d="M27.9 45.4667H25.8333V47.5333H27.9V45.4667Z" fill="#333333"/>
<path d="M23.7667 45.4667H21.7V47.5333H23.7667V45.4667Z" fill="#333333"/>
<path d="M19.6333 45.4667H17.5667V47.5333H19.6333V45.4667Z" fill="#333333"/>
<path d="M15.5 45.4667H13.4333V47.5333H15.5V45.4667Z" fill="#333333"/>
<path d="M11.3667 45.4667H9.3V47.5333H11.3667V45.4667Z" fill="#333333"/>
<path d="M7.23333 45.4667H5.16667V47.5333H7.23333V45.4667Z" fill="#333333"/>
<path d="M56.8333 45.4667H54.7667V47.5333H56.8333V45.4667Z" fill="#333333"/>
<path d="M7.23333 18.6H5.16667V43.4H7.23333V18.6Z" fill="#333333"/>
<path d="M19.6333 22.7333H17.5667V43.4H19.6333V22.7333Z" fill="#333333"/>
<path d="M15.5 22.7333H13.4333V43.4H15.5V22.7333Z" fill="#333333"/>
<path d="M56.8333 31H54.7667V43.4H56.8333V31Z" fill="#333333"/>
<path d="M56.8333 4.13333H48.5667V6.2H56.8333V4.13333Z" fill="#333333"/>
<path d="M7.23333 4.13333H5.16667V6.2H7.23333V4.13333Z" fill="#333333"/>
<path d="M11.3667 4.13333H9.3V6.2H11.3667V4.13333Z" fill="#333333"/>
<path d="M15.5 4.13333H13.4333V6.2H15.5V4.13333Z" fill="#333333"/>
<path d="M56.8333 8.26667H48.5667V10.3333H56.8333V8.26667Z" fill="#333333"/>
<path d="M50.1167 40.3413C49.5953 40.2606 49.0621 40.3132 48.5667 40.4943V31H46.5V40.485C45.8332 40.2384 45.1001 40.2384 44.4333 40.485V31H42.3667V40.5232C41.7024 40.2769 40.9746 40.2606 40.3 40.4767V31.1106C40.3194 29.5682 39.2313 28.2332 37.7167 27.9413C36.0286 27.656 34.4287 28.7932 34.1434 30.4813C34.1145 30.6527 34.0999 30.8261 34.1 31V42.3667C33.4879 41.9106 32.7819 41.5964 32.0333 41.447V26.8667H29.9667V54.7667C29.9671 54.9707 30.0274 55.1702 30.1403 55.3402L34.5805 62H37.0605L32.0333 54.4567V43.5767C33.271 44.0163 34.0984 45.1866 34.1 46.5V50.6333C34.1 51.204 34.5627 51.6667 35.1333 51.6667C35.704 51.6667 36.1667 51.204 36.1667 50.6333V31C36.1664 30.4293 36.6288 29.9664 37.1996 29.9663C37.2604 29.9663 37.321 29.9716 37.3808 29.9822C37.8967 30.1084 38.253 30.5798 38.2333 31.1106V43.4C38.2333 43.9707 38.696 44.4333 39.2667 44.4333C39.8373 44.4333 40.3 43.9707 40.3 43.4C40.3 42.8293 40.7627 42.3667 41.3333 42.3667C41.904 42.3667 42.3667 42.8293 42.3667 43.4C42.3667 43.9707 42.8293 44.4333 43.4 44.4333C43.9707 44.4333 44.4333 43.9707 44.4333 43.4C44.4333 42.8293 44.896 42.3667 45.4667 42.3667C46.0373 42.3667 46.5 42.8293 46.5 43.4C46.5 43.9707 46.9627 44.4333 47.5333 44.4333C48.104 44.4333 48.5667 43.9707 48.5667 43.4C48.5664 42.8293 49.0288 42.3664 49.5996 42.3663C49.6604 42.3663 49.721 42.3716 49.7808 42.3822C50.2967 42.5084 50.653 42.9798 50.6333 43.5106V62H52.7V43.5106C52.7194 41.9682 51.6313 40.6333 50.1167 40.3413Z" fill="#333333"/>
</svg>
