<svg width="61" height="61" viewBox="0 0 61 61" fill="none" xmlns="http://www.w3.org/2000/svg">
<path d="M23.3516 2.38281C23.6648 2.38281 23.9724 2.25529 24.1939 2.03377C24.4155 1.81224 24.543 1.50462 24.543 1.19141C24.543 0.878197 24.4155 0.570572 24.1939 0.349045C23.9724 0.127518 23.6648 0 23.3516 0C23.0384 0 22.7307 0.127518 22.5092 0.349045C22.2877 0.570572 22.1602 0.878197 22.1602 1.19141C22.1602 1.50462 22.2877 1.81224 22.5092 2.03377C22.7307 2.25529 23.0384 2.38281 23.3516 2.38281Z" fill="#333333"/>
<path d="M55.9961 24.3047H46.7031V1.19141C46.7031 0.53334 46.1698 0 45.5117 0H28.1172C27.4591 0 26.9258 0.53334 26.9258 1.19141C26.9258 1.84947 27.4591 2.38281 28.1172 2.38281H44.3203V24.3047H35.9805C33.2212 24.3047 30.9766 26.5493 30.9766 29.3086V32.168H21.2666C20.6085 32.168 20.0752 32.7013 20.0752 33.3594C20.0752 34.0174 20.6085 34.5508 21.2666 34.5508H30.9766V43.6055H21.2666C20.6085 43.6055 20.0752 44.1388 20.0752 44.7969C20.0752 45.4549 20.6085 45.9883 21.2666 45.9883H30.9766V52.8984H10.7227C10.0646 52.8984 9.53125 53.4318 9.53125 54.0898V55.043C9.53125 57.0139 7.92797 58.6172 5.95703 58.6172C3.98609 58.6172 2.38281 57.0139 2.38281 55.043V2.38281H18.5859C19.244 2.38281 19.7773 1.84947 19.7773 1.19141C19.7773 0.53334 19.244 0 18.5859 0H1.19141C0.53334 0 0 0.53334 0 1.19141V55.043C0 58.3277 2.67229 61 5.95703 61H55.9961C58.7554 61 61 58.7554 61 55.9961V29.3086C61 26.5493 58.7554 24.3047 55.9961 24.3047ZM11.908 55.2812H30.9766V55.9961C30.9766 56.9567 31.2493 57.8544 31.7203 58.6172H10.7194C11.4245 57.6804 11.8587 56.5294 11.908 55.2812ZM58.6172 55.9961C58.6172 57.4416 57.4416 58.6172 55.9961 58.6172H35.9805C34.535 58.6172 33.3594 57.4416 33.3594 55.9961V29.3086C33.3594 27.8631 34.535 26.6875 35.9805 26.6875H55.9961C57.4416 26.6875 58.6172 27.8631 58.6172 29.3086V55.9961Z" fill="#333333"/>
<path d="M54.5664 29.5469H37.405C36.7474 29.5469 36.2136 30.0802 36.2136 30.7383V37.4102C36.2136 38.0682 36.7474 38.6016 37.405 38.6016H54.5664C55.2245 38.6016 55.7578 38.0682 55.7578 37.4102V30.7383C55.7578 30.0802 55.2245 29.5469 54.5664 29.5469ZM53.375 36.2188H38.5964V31.9297H53.375V36.2188Z" fill="#333333"/>
<path d="M39.6738 40.5078H37.405C36.7474 40.5078 36.2136 41.0412 36.2136 41.6992C36.2136 42.3573 36.7474 42.8906 37.405 42.8906H39.6738C40.3319 42.8906 40.8652 42.3573 40.8652 41.6992C40.8652 41.0412 40.3319 40.5078 39.6738 40.5078Z" fill="#333333"/>
<path d="M47.1201 40.5078H44.8513C44.1937 40.5078 43.6599 41.0412 43.6599 41.6992C43.6599 42.3573 44.1937 42.8906 44.8513 42.8906H47.1201C47.7782 42.8906 48.3115 42.3573 48.3115 41.6992C48.3115 41.0412 47.7782 40.5078 47.1201 40.5078Z" fill="#333333"/>
<path d="M54.5664 40.5078H52.2976C51.64 40.5078 51.1062 41.0412 51.1062 41.6992C51.1062 42.3573 51.64 42.8906 52.2976 42.8906H54.5664C55.2245 42.8906 55.7578 42.3573 55.7578 41.6992C55.7578 41.0412 55.2245 40.5078 54.5664 40.5078Z" fill="#333333"/>
<path d="M39.6738 44.8765H37.405C36.7474 44.8765 36.2136 45.4098 36.2136 46.0679C36.2136 46.7259 36.7474 47.2593 37.405 47.2593H39.6738C40.3319 47.2593 40.8652 46.7259 40.8652 46.0679C40.8652 45.4098 40.3319 44.8765 39.6738 44.8765Z" fill="#333333"/>
<path d="M47.1201 44.8765H44.8513C44.1937 44.8765 43.6599 45.4098 43.6599 46.0679C43.6599 46.7259 44.1937 47.2593 44.8513 47.2593H47.1201C47.7782 47.2593 48.3115 46.7259 48.3115 46.0679C48.3115 45.4098 47.7782 44.8765 47.1201 44.8765Z" fill="#333333"/>
<path d="M54.5664 44.8765H52.2976C51.64 44.8765 51.1062 45.4098 51.1062 46.0679C51.1062 46.7259 51.64 47.2593 52.2976 47.2593H54.5664C55.2245 47.2593 55.7578 46.7259 55.7578 46.0679C55.7578 45.4098 55.2245 44.8765 54.5664 44.8765Z" fill="#333333"/>
<path d="M39.6738 49.2446H37.405C36.7474 49.2446 36.2136 49.778 36.2136 50.436C36.2136 51.0941 36.7474 51.6274 37.405 51.6274H39.6738C40.3319 51.6274 40.8652 51.0941 40.8652 50.436C40.8652 49.778 40.3319 49.2446 39.6738 49.2446Z" fill="#333333"/>
<path d="M47.1201 49.2446H44.8513C44.1937 49.2446 43.6599 49.778 43.6599 50.436C43.6599 51.0941 44.1937 51.6274 44.8513 51.6274H47.1201C47.7782 51.6274 48.3115 51.0941 48.3115 50.436C48.3115 49.778 47.7782 49.2446 47.1201 49.2446Z" fill="#333333"/>
<path d="M54.5664 49.2446H52.2976C51.64 49.2446 51.1062 49.778 51.1062 50.436C51.1062 51.0941 51.64 51.6274 52.2976 51.6274H54.5664C55.2245 51.6274 55.7578 51.0941 55.7578 50.436C55.7578 49.778 55.2245 49.2446 54.5664 49.2446Z" fill="#333333"/>
<path d="M39.6738 53.6133H37.405C36.7474 53.6133 36.2136 54.1466 36.2136 54.8047C36.2136 55.4628 36.7474 55.9961 37.405 55.9961H39.6738C40.3319 55.9961 40.8652 55.4628 40.8652 54.8047C40.8652 54.1466 40.3319 53.6133 39.6738 53.6133Z" fill="#333333"/>
<path d="M47.1201 53.6133H44.8513C44.1937 53.6133 43.6599 54.1466 43.6599 54.8047C43.6599 55.4628 44.1937 55.9961 44.8513 55.9961H47.1201C47.7782 55.9961 48.3115 55.4628 48.3115 54.8047C48.3115 54.1466 47.7782 53.6133 47.1201 53.6133Z" fill="#333333"/>
<path d="M54.5664 53.6133H52.2976C51.64 53.6133 51.1062 54.1466 51.1062 54.8047C51.1062 55.4628 51.64 55.9961 52.2976 55.9961H54.5664C55.2245 55.9961 55.7578 55.4628 55.7578 54.8047C55.7578 54.1466 55.2245 53.6133 54.5664 53.6133Z" fill="#333333"/>
<path d="M14.5352 7.625C14.5352 6.96693 14.0018 6.43359 13.3438 6.43359H7.625C6.96693 6.43359 6.43359 6.96693 6.43359 7.625V13.3438C6.43359 14.0018 6.96693 14.5352 7.625 14.5352H13.3438C14.0018 14.5352 14.5352 14.0018 14.5352 13.3438V7.625ZM12.1523 12.1523H8.81641V8.81641H12.1523V12.1523Z" fill="#333333"/>
<path d="M14.5352 19.0625C14.5352 18.4044 14.0018 17.8711 13.3438 17.8711H7.625C6.96693 17.8711 6.43359 18.4044 6.43359 19.0625V24.7812C6.43359 25.4393 6.96693 25.9727 7.625 25.9727H13.3438C14.0018 25.9727 14.5352 25.4393 14.5352 24.7812V19.0625ZM12.1523 23.5898H8.81641V20.2539H12.1523V23.5898Z" fill="#333333"/>
<path d="M14.5352 30.5C14.5352 29.8419 14.0018 29.3086 13.3438 29.3086H7.625C6.96693 29.3086 6.43359 29.8419 6.43359 30.5V36.2188C6.43359 36.8768 6.96693 37.4102 7.625 37.4102H13.3438C14.0018 37.4102 14.5352 36.8768 14.5352 36.2188V30.5ZM12.1523 35.0273H8.81641V31.6914H12.1523V35.0273Z" fill="#333333"/>
<path d="M13.3438 40.7461H7.625C6.96693 40.7461 6.43359 41.2794 6.43359 41.9375V47.6562C6.43359 48.3143 6.96693 48.8477 7.625 48.8477H13.3438C14.0018 48.8477 14.5352 48.3143 14.5352 47.6562V41.9375C14.5352 41.2794 14.0018 40.7461 13.3438 40.7461ZM12.1523 46.4648H8.81641V43.1289H12.1523V46.4648Z" fill="#333333"/>
<path d="M21.2666 11.6758H35.8613C36.5194 11.6758 37.0527 11.1424 37.0527 10.4844C37.0527 9.82631 36.5194 9.29297 35.8613 9.29297H21.2666C20.6085 9.29297 20.0752 9.82631 20.0752 10.4844C20.0752 11.1424 20.6085 11.6758 21.2666 11.6758Z" fill="#333333"/>
<path d="M21.2666 23.1133H35.8613C36.5194 23.1133 37.0527 22.5799 37.0527 21.9219C37.0527 21.2638 36.5194 20.7305 35.8613 20.7305H21.2666C20.6085 20.7305 20.0752 21.2638 20.0752 21.9219C20.0752 22.5799 20.6085 23.1133 21.2666 23.1133Z" fill="#333333"/>
</svg>
