<svg width="46" height="60" viewBox="0 0 46 60" fill="none" xmlns="http://www.w3.org/2000/svg">
<path d="M45.0005 4H32V1C32.0001 0.447875 31.5526 0.000125026 31.0005 2.61808e-08H15C14.4479 -0.000124974 14.0001 0.447375 14 0.9995V4H1C0.447875 3.99988 0.000125026 4.44737 2.61808e-08 4.9995V59C-0.000124974 59.5521 0.447375 59.9999 0.9995 60H45C45.5521 60.0001 45.9999 59.5526 46 59.0005V5C46.0001 4.44788 45.5526 4.00012 45.0005 4ZM16 2H30V8H16V2ZM44 58H2V6H14V9C13.9999 9.55212 14.4474 9.99988 14.9995 10H31C31.5521 10.0001 31.9999 9.55262 32 9.0005V6H44V58Z" fill="#333333"/>
<path d="M26 46H4V48H26V46Z" fill="#333333"/>
<path d="M42 46H28V48H42V46Z" fill="#333333"/>
<path d="M42 50H4V52H42V50Z" fill="#333333"/>
<path d="M20 54H4V56H20V54Z" fill="#333333"/>
<path d="M42 54H22V56H42V54Z" fill="#333333"/>
<path d="M11.0005 29H5C4.44788 28.9999 4.00012 29.4474 4 29.9995V43C3.99988 43.5521 4.44738 43.9999 4.9995 44H11C11.5521 44.0001 11.9999 43.5526 12 43.0005V30C12.0001 29.4479 11.5526 29.0001 11.0005 29ZM10 42H6V31H10V42Z" fill="#333333"/>
<path d="M21.0005 25H15C14.4479 24.9999 14.0001 25.4474 14 25.9995V43C13.9999 43.5521 14.4474 43.9999 14.9995 44H21C21.5521 44.0001 21.9999 43.5526 22 43.0005V26C22.0001 25.4479 21.5526 25.0001 21.0005 25ZM20 42H16V27H20V42Z" fill="#333333"/>
<path d="M31.0005 21H25C24.4479 20.9999 24.0001 21.4474 24 21.9995V43C23.9999 43.5521 24.4474 43.9999 24.9995 44H31C31.5521 44.0001 31.9999 43.5526 32 43.0005V22C32.0001 21.4479 31.5526 21.0001 31.0005 21ZM30 42H26V23H30V42Z" fill="#333333"/>
<path d="M41.0005 17H35C34.4479 16.9999 34.0001 17.4474 34 17.9995V43C33.9999 43.5521 34.4474 43.9999 34.9995 44H41C41.5521 44.0001 41.9999 43.5526 42 43.0005V18C42.0001 17.4479 41.5526 17.0001 41.0005 17ZM40 42H36V19H40V42Z" fill="#333333"/>
<path d="M40.8037 10.0195L30.8037 12.0195C30.6757 12.0451 30.554 12.0956 30.4454 12.168L21.6973 18H13C12.8126 18 12.629 18.0527 12.4702 18.1524L4.47025 23.1524L5.52987 24.8477L13.2866 20H22C22.1974 19.9999 22.3904 19.9415 22.5547 19.832L31.3903 13.9414L41.1964 11.9804L40.8037 10.0195Z" fill="#333333"/>
</svg>
