<svg width="62" height="62" viewBox="0 0 62 62" fill="none" xmlns="http://www.w3.org/2000/svg">
<path d="M57.8667 15.5H54.7665V6.19991C54.7656 5.05898 53.8408 4.13469 52.6999 4.13327H15.5V1.03356C15.5 0.462619 15.0374 2.7695e-06 14.4664 2.7695e-06H5.16683C3.79601 -0.0014163 2.48101 0.54256 1.51178 1.51178C0.54256 2.48101 -0.0014163 3.79601 2.7695e-06 5.16683V52.6999C0.00331393 55.5522 2.3145 57.8634 5.16683 57.8667H27.8998C27.9027 60.1486 29.7517 61.9976 32.0336 62H57.8667C60.1486 61.9976 61.9976 60.1486 62 57.8667V19.6333C61.9976 17.3514 60.1486 15.5024 57.8667 15.5ZM2.96775 2.97768C3.55146 2.39539 4.34235 2.06806 5.16683 2.06664H13.4334V47.5336H5.16683C4.04529 47.5388 2.95639 47.9115 2.06664 48.5936V5.16683C2.06711 4.34708 2.39066 3.56044 2.96775 2.97768ZM5.16683 55.8001C3.45449 55.8001 2.06664 54.4123 2.06664 52.6999C2.06664 50.988 3.45449 49.6002 5.16683 49.6002H14.4664C15.0374 49.6002 15.5 49.1376 15.5 48.5666V10.3332H17.5666V11.3667C17.5666 11.9372 18.0293 12.3998 18.6002 12.3998C19.1707 12.3998 19.6333 11.9372 19.6333 11.3667V10.3332H21.6999V11.3667C21.6999 11.9372 22.1625 12.3998 22.7335 12.3998C23.3039 12.3998 23.7665 11.9372 23.7665 11.3667V10.3332H25.8332V11.3667C25.8332 11.9372 26.2958 12.3998 26.8667 12.3998C27.4372 12.3998 27.8998 11.9372 27.8998 11.3667V10.3332H29.9664V11.3667C29.9664 11.9372 30.4295 12.3998 31 12.3998C31.5705 12.3998 32.0336 11.9372 32.0336 11.3667V10.3332H34.1002V11.3667C34.1002 11.9372 34.5628 12.3998 35.1333 12.3998C35.7042 12.3998 36.1668 11.9372 36.1668 11.3667V10.3332H38.2335V11.3667C38.2335 11.9372 38.6961 12.3998 39.2665 12.3998C39.8375 12.3998 40.3001 11.9372 40.3001 11.3667V10.3332H42.3667V11.3667C42.3667 11.9372 42.8293 12.3998 43.3998 12.3998C43.9708 12.3998 44.4334 11.9372 44.4334 11.3667V10.3332H46.5V11.3667C46.5 11.9372 46.9626 12.3998 47.5336 12.3998C48.104 12.3998 48.5666 11.9372 48.5666 11.3667V9.3001C48.5666 8.72916 48.104 8.26654 47.5336 8.26654H15.5V6.19991H52.6999V15.5H32.0336C29.7517 15.5024 27.9027 17.3514 27.8998 19.6333V55.8001H5.16683ZM59.9334 57.8667C59.9324 59.0077 59.0077 59.9324 57.8667 59.9334H32.0336C30.8926 59.9324 29.9679 59.0077 29.9664 57.8667V19.6333C29.9679 18.4923 30.8926 17.5676 32.0336 17.5666H57.8667C59.0077 17.5676 59.9324 18.4923 59.9334 19.6333V57.8667Z" fill="#333333"/>
<path d="M55.8001 19.6333H34.1002C32.9593 19.6347 32.0345 20.559 32.0336 21.6999V27.8998C32.0345 29.0407 32.9593 29.9655 34.1002 29.9664H55.8001C56.941 29.9655 57.8653 29.0407 57.8667 27.8998V21.6999C57.8653 20.559 56.941 19.6347 55.8001 19.6333ZM34.1002 27.8998V21.6999H55.8001L55.8015 27.8998H34.1002Z" fill="#333333"/>
<path d="M37.1999 32.0336H34.1002C32.9593 32.0345 32.0345 32.9593 32.0336 34.1002V37.1999C32.0345 38.3408 32.9593 39.2656 34.1002 39.2665H37.1999C38.3408 39.2656 39.2656 38.3408 39.2665 37.1999V34.1002C39.2656 32.9593 38.3408 32.0345 37.1999 32.0336ZM34.1002 37.1999V34.1002H37.1999L37.2013 37.1999H34.1002Z" fill="#333333"/>
<path d="M46.5 32.0336H43.3998C42.2589 32.0345 41.3346 32.9593 41.3332 34.1002V37.1999C41.3346 38.3408 42.2589 39.2656 43.3998 39.2665H46.5C47.6409 39.2656 48.5657 38.3408 48.5666 37.1999V34.1002C48.5657 32.9593 47.6409 32.0345 46.5 32.0336ZM43.3998 37.1999V34.1002H46.5L46.5014 37.1999H43.3998Z" fill="#333333"/>
<path d="M55.8001 32.0336H52.6999C51.559 32.0345 50.6347 32.9593 50.6333 34.1002V37.1999C50.6347 38.3408 51.559 39.2656 52.6999 39.2665H55.8001C56.941 39.2656 57.8653 38.3408 57.8667 37.1999V34.1002C57.8653 32.9593 56.941 32.0345 55.8001 32.0336ZM52.6999 37.1999V34.1002H55.8001L55.8015 37.1999H52.6999Z" fill="#333333"/>
<path d="M37.1999 41.3332H34.1002C32.9593 41.3346 32.0345 42.2589 32.0336 43.3998V46.5C32.0345 47.6409 32.9593 48.5657 34.1002 48.5666H37.1999C38.3408 48.5657 39.2656 47.6409 39.2665 46.5V43.3998C39.2656 42.2589 38.3408 41.3346 37.1999 41.3332ZM34.1002 46.5V43.3998H37.1999L37.2013 46.5H34.1002Z" fill="#333333"/>
<path d="M46.5 41.3332H43.3998C42.2589 41.3346 41.3346 42.2589 41.3332 43.3998V46.5C41.3346 47.6409 42.2589 48.5657 43.3998 48.5666H46.5C47.6409 48.5657 48.5657 47.6409 48.5666 46.5V43.3998C48.5657 42.2589 47.6409 41.3346 46.5 41.3332ZM43.3998 46.5V43.3998H46.5L46.5014 46.5H43.3998Z" fill="#333333"/>
<path d="M37.1999 50.6333H34.1002C32.9593 50.6347 32.0345 51.559 32.0336 52.6999V55.8001C32.0345 56.941 32.9593 57.8653 34.1002 57.8667H37.1999C38.3408 57.8653 39.2656 56.941 39.2665 55.8001V52.6999C39.2656 51.559 38.3408 50.6347 37.1999 50.6333ZM34.1002 55.8001V52.6999H37.1999L37.2013 55.8001H34.1002Z" fill="#333333"/>
<path d="M46.5 50.6333H43.3998C42.2589 50.6347 41.3346 51.559 41.3332 52.6999V55.8001C41.3346 56.941 42.2589 57.8653 43.3998 57.8667H46.5C47.6409 57.8653 48.5657 56.941 48.5666 55.8001V52.6999C48.5657 51.559 47.6409 50.6347 46.5 50.6333ZM43.3998 55.8001V52.6999H46.5L46.5014 55.8001H43.3998Z" fill="#333333"/>
<path d="M55.8001 41.3332H52.6999C51.559 41.3346 50.6347 42.2589 50.6333 43.3998V55.8001C50.6347 56.941 51.559 57.8653 52.6999 57.8667H55.8001C56.941 57.8653 57.8653 56.941 57.8667 55.8001V43.3998C57.8653 42.2589 56.941 41.3346 55.8001 41.3332ZM55.8001 55.8001L52.6999 55.8015V43.3998H55.8001V55.8001Z" fill="#333333"/>
<path d="M5.16683 8.26654C5.73729 8.26654 6.19991 7.80393 6.19991 7.23346V5.16683C6.19991 4.59589 5.73729 4.13327 5.16683 4.13327C4.59589 4.13327 4.13327 4.59589 4.13327 5.16683V7.23346C4.13327 7.80393 4.59589 8.26654 5.16683 8.26654Z" fill="#333333"/>
<path d="M5.16683 37.1999C5.73729 37.1999 6.19991 36.7373 6.19991 36.1668V11.3667C6.19991 10.7958 5.73729 10.3332 5.16683 10.3332C4.59589 10.3332 4.13327 10.7958 4.13327 11.3667V36.1668C4.13327 36.7373 4.59589 37.1999 5.16683 37.1999Z" fill="#333333"/>
<path d="M24.0693 19.3305C24.4751 19.7222 25.1194 19.7165 25.5181 19.3178C25.9164 18.9195 25.9221 18.2748 25.5304 17.8694L22.4307 14.7697C22.4213 14.7597 22.4085 14.7574 22.3986 14.7484C22.3106 14.6628 22.2079 14.5942 22.0954 14.5454L22.092 14.5445C22.0831 14.5407 22.0736 14.5412 22.0646 14.5379C21.9601 14.4986 21.8499 14.4773 21.7382 14.474C21.7037 14.474 21.6692 14.4759 21.6351 14.4792C21.5471 14.4849 21.4601 14.5019 21.3764 14.5298C21.3428 14.5398 21.3092 14.5516 21.2766 14.5653C21.1626 14.614 21.0585 14.6831 20.9696 14.7697L17.8694 17.8694C17.4777 18.2748 17.4834 18.9195 17.8821 19.3178C18.2804 19.7165 18.9252 19.7222 19.3305 19.3305L20.6668 17.9947V48.1386L19.3305 46.8027C18.9252 46.4111 18.2804 46.4168 17.8821 46.8155C17.4834 47.2138 17.4777 47.8585 17.8694 48.2639L20.9696 51.3641C21.2638 51.6593 21.707 51.7477 22.0925 51.5888L22.0954 51.5878C22.2079 51.5391 22.3106 51.4705 22.3986 51.3854C22.4085 51.3764 22.4213 51.3736 22.4307 51.3641L25.5304 48.2639C25.9221 47.8585 25.9164 47.2138 25.5181 46.8155C25.1194 46.4168 24.4751 46.4111 24.0693 46.8027L22.7335 48.1386V17.9947L24.0693 19.3305Z" fill="#333333"/>
</svg>
