<svg width="62" height="62" viewBox="0 0 62 62" fill="none" xmlns="http://www.w3.org/2000/svg">
<path d="M61.3501 38.3054C60.956 38.1488 60.5062 38.2467 60.2134 38.5532L55.8001 43.1923V15.6376H55.8053L60.0161 11.0908C60.4035 10.6721 60.378 10.0179 59.9589 9.63051C59.9589 9.63051 59.9584 9.63004 59.958 9.62957L58.4424 8.21898L60.5483 5.94558C60.9352 5.52647 60.9092 4.87273 60.4901 4.48579L55.9434 0.274842C55.5248 -0.112573 54.8711 -0.0875018 54.4837 0.331606L47.1367 8.26486H11.3667C11.3634 5.41247 9.05223 3.10122 6.19991 3.09791H5.16682C2.3145 3.10122 0.00331116 5.41247 0 8.26486V52.6993C0 53.2698 0.462616 53.7324 1.03355 53.7324H16.6759L14.5057 56.3384C14.141 56.7774 14.2006 57.4287 14.6391 57.7934L19.4039 61.7608C19.8423 62.1259 20.4942 62.0663 20.8593 61.6278L20.8598 61.6274L26.1487 55.2731C26.5139 54.8332 26.7489 54.2991 26.8265 53.7324H45.7611L39.5508 60.2542C39.1577 60.6676 39.1743 61.3218 39.5877 61.7149C39.7798 61.8975 40.0347 61.9996 40.3001 61.9992H60.9664C61.5374 61.9992 62 61.5365 62 60.9661V39.2656C62 38.8427 61.7427 38.4624 61.3501 38.3054ZM57.7977 10.4347L55.8001 12.5955V11.0756L57.0399 9.73221L57.7977 10.4347ZM53.7335 10.2507V10.2653L44.9944 19.7104L41.9595 16.9025L52.487 5.52505L55.522 8.33298L53.7458 10.2507H53.7335ZM43.0096 20.6877L40.6326 21.3812L41.1402 18.9569L43.0096 20.6877ZM55.2949 2.49148L58.3284 5.29799L56.9245 6.81785L53.8905 4.0085L55.2949 2.49148ZM5.16682 5.1646H6.19991C7.91225 5.1646 9.30009 6.55248 9.30009 8.26486V47.5593C8.41081 46.8753 7.32144 46.5026 6.19991 46.4988H5.16682C4.04482 46.5026 2.95592 46.8753 2.06664 47.5593V8.26486C2.06664 6.55248 3.45448 5.1646 5.16682 5.1646ZM5.16682 48.5655H6.19991C7.91225 48.5655 9.30009 49.9538 9.30009 51.6657H2.06664C2.06664 49.9538 3.45448 48.5655 5.16682 48.5655ZM24.5612 53.9514L23.8999 54.7452L20.7236 52.1009L21.3839 51.3062C21.7491 50.8677 22.4005 50.8081 22.8389 51.1733C22.8394 51.1733 22.8394 51.1738 22.8399 51.1738L24.4278 52.4926C24.8668 52.8573 24.9269 53.5087 24.5622 53.9477C24.5617 53.9481 24.5617 53.9481 24.5612 53.9486V53.9514ZM19.9332 59.511L16.7563 56.8668L19.401 53.6889L22.5774 56.3336L19.9332 59.511ZM26.3923 51.6657C26.2206 51.3796 26.0035 51.1236 25.7495 50.9075L24.1615 49.5858C22.8456 48.4903 20.891 48.6686 19.7955 49.9846L18.3935 51.6657H11.3667V10.3315H45.2247L39.741 16.2577C39.6625 16.3462 39.6 16.4484 39.557 16.5586C39.5447 16.5884 39.5352 16.6163 39.5248 16.6475C39.5149 16.6782 39.4993 16.7095 39.4917 16.7426L38.2581 22.6408C38.1417 23.1995 38.5002 23.7468 39.0589 23.8632C39.2249 23.8977 39.3966 23.8911 39.5589 23.8438L45.3458 22.1574C45.3728 22.1489 45.3955 22.1333 45.421 22.1243C45.4471 22.1148 45.474 22.1016 45.5019 22.0879C45.6178 22.0354 45.7228 21.9611 45.8118 21.8698L53.7335 13.3084V45.3621L47.7299 51.6657H26.3923ZM59.9334 59.9325H42.7106L59.9334 41.8489V59.9325Z" fill="#333333"/>
<path d="M48.6452 57.2282C48.805 57.6142 49.182 57.8658 49.6002 57.8658H56.8332C57.4041 57.8658 57.8667 57.4032 57.8667 56.8327V49.5991C57.8667 49.0281 57.4036 48.566 56.8332 48.566C56.5593 48.566 56.2963 48.6748 56.1028 48.8687L48.8694 56.1019C48.5737 56.3975 48.4853 56.8422 48.6452 57.2282ZM55.8001 52.0934V55.7991H52.0944L55.8001 52.0934Z" fill="#333333"/>
<path d="M45.4664 39.2656H38.2335V27.8986C38.232 27.6243 38.1228 27.3612 37.9293 27.1668L31.7294 20.9668C31.3259 20.5633 30.6717 20.5633 30.2682 20.9668L24.0683 27.1668C23.8758 27.3617 23.7675 27.6247 23.7665 27.8986V39.2656H16.5336C15.9626 39.2656 15.5 39.7283 15.5 40.2987C15.5 40.8697 15.9626 41.3323 16.5336 41.3323H45.4669C46.0374 41.3323 46.5 40.8697 46.5 40.2987C46.5 39.7283 46.0374 39.2656 45.4664 39.2656ZM31 23.1593L34.7057 26.865H27.2943L31 23.1593ZM25.8332 28.9317H36.1668V39.2656H25.8332V28.9317Z" fill="#333333"/>
<path d="M29.9664 16.5316H32.0336V18.5983H29.9664V16.5316Z" fill="#333333"/>
<path d="M29.9664 43.399H32.0336V45.4657H29.9664V43.399Z" fill="#333333"/>
</svg>
