<svg width="60" height="62" viewBox="0 0 60 62" fill="none" xmlns="http://www.w3.org/2000/svg">
<path d="M59.224 41.156L55.9797 40.3456C55.7084 39.4509 55.3482 38.585 54.9046 37.7619L56.6263 34.8962C56.8708 34.4895 56.8067 33.9687 56.4712 33.6331L53.2421 30.4035C52.9061 30.068 52.3847 30.0044 51.9776 30.2486L49.1086 31.9684C48.7363 31.769 48.3533 31.5849 47.9633 31.4173C47.4905 31.217 47.007 31.0424 46.5149 30.8945L45.7036 27.6533C45.5889 27.1931 45.1752 26.8702 44.7003 26.8702H40.1364C39.6615 26.8702 39.2478 27.1931 39.1326 27.6533L38.3218 30.8945C37.4255 31.1655 36.5591 31.5253 35.7352 31.9684L32.8662 30.2486C32.459 30.0044 31.9377 30.068 31.6017 30.4035L28.3685 33.6291C28.0325 33.9647 27.9689 34.4854 28.2134 34.8922L29.9351 37.7579C29.491 38.581 29.1313 39.4464 28.86 40.3416L25.6152 41.1515C25.1545 41.2666 24.8311 41.6798 24.8311 42.1542V46.716C24.8311 47.1903 25.1545 47.6036 25.6152 47.7182L28.86 48.5286C29.1313 49.4233 29.491 50.2887 29.9351 51.1123L28.2134 53.978C27.9689 54.3847 28.0325 54.9055 28.3685 55.2411L31.5977 58.4666C31.9336 58.8017 32.455 58.8658 32.8616 58.6216L35.7306 56.9018C36.5551 57.3449 37.4215 57.7046 38.3172 57.9756L39.1285 61.2163C39.2437 61.6765 39.6575 61.9995 40.1324 62H44.6993C45.1742 61.9995 45.5879 61.6765 45.7026 61.2163L46.5139 57.9756C47.4096 57.7046 48.276 57.3449 49.1005 56.9018L51.9695 58.6216C52.3767 58.8658 52.898 58.8017 53.234 58.4666L56.4626 55.2411C56.7986 54.9055 56.8628 54.3847 56.6182 53.978L54.8966 51.1123C55.3401 50.2887 55.7003 49.4233 55.9716 48.5286L59.2159 47.7182C59.6767 47.6036 60 47.1903 60 46.716V42.1582C60.001 41.6864 59.6817 41.2736 59.224 41.156ZM57.9393 45.9126L54.8945 46.6736C54.5242 46.7654 54.2353 47.0526 54.1413 47.4219C53.8564 48.5417 53.4113 49.6145 52.8187 50.6066C52.6237 50.9336 52.6237 51.3408 52.8187 51.6673L54.4348 54.3545L52.3524 56.4431L49.6623 54.8288C49.3354 54.6335 48.9277 54.6335 48.6009 54.8288C47.6072 55.4202 46.5331 55.8653 45.4121 56.1494C45.0423 56.2433 44.7549 56.5324 44.6629 56.9018L43.895 59.9411H40.9442L40.1829 56.8998C40.0909 56.5304 39.803 56.2412 39.4337 56.1474C38.3127 55.8628 37.2386 55.4182 36.2449 54.8263C35.9181 54.6315 35.5104 54.6315 35.1835 54.8263L32.4934 56.4406L30.4024 54.3605L32.0185 51.6734C32.214 51.3469 32.214 50.9397 32.0185 50.6132C31.4264 49.6206 30.9808 48.5478 30.6964 47.428C30.6024 47.0591 30.313 46.7715 29.9432 46.6796L26.9004 45.9126V42.9656L29.9452 42.2046C30.315 42.1128 30.6045 41.8257 30.6984 41.4563C30.9828 40.3365 31.4284 39.2637 32.0205 38.2716C32.216 37.9446 32.216 37.5374 32.0205 37.2109L30.4044 34.5238L32.4873 32.4352L35.1774 34.0494C35.5043 34.2447 35.912 34.2447 36.2388 34.0494C37.2326 33.458 38.3066 33.0129 39.4276 32.7288C39.7969 32.635 40.0849 32.3458 40.1768 31.9764L40.9442 28.9371H43.895L44.6568 31.9785C44.7488 32.3479 45.0362 32.637 45.4055 32.7309C46.5266 33.0145 47.6006 33.459 48.5933 34.051C48.9207 34.2462 49.3288 34.2462 49.6562 34.051L52.3458 32.4367L54.4368 34.5177L52.8207 37.2048C52.6257 37.5313 52.6257 37.9386 52.8207 38.2651C53.4133 39.2576 53.8584 40.3305 54.1433 41.4502C54.2373 41.8191 54.5263 42.1068 54.8966 42.1986L57.9393 42.9656V45.9126Z" fill="#333333"/>
<path d="M42.4199 36.1714C37.8484 36.1714 34.1428 39.8728 34.1428 44.4391C34.1428 49.0055 37.8484 52.7069 42.4199 52.7069C46.9908 52.7069 50.6969 49.0055 50.6969 44.4391C50.6919 39.8753 46.9888 36.1764 42.4199 36.1714ZM42.4199 50.6399C38.9911 50.6399 36.2121 47.8635 36.2121 44.4391C36.2121 41.0147 38.9911 38.2383 42.4199 38.2383C45.8481 38.2383 48.6276 41.0147 48.6276 44.4391C48.6241 47.8625 45.8466 50.6364 42.4199 50.6399Z" fill="#333333"/>
<path d="M47.593 12.4016H49.6623V28.9371H47.593V12.4016Z" fill="#333333"/>
<path d="M4.13852 52.7069V56.8407C4.13852 57.4115 4.60178 57.8742 5.17315 57.8742H26.9004V55.8073H6.20778V52.7069H18.6234C18.7835 52.7084 18.9416 52.6731 19.0856 52.6034L23.2241 50.5365C23.5752 50.3619 23.7975 50.0036 23.7975 49.6115C23.7975 49.2199 23.5752 48.8616 23.2241 48.6865L19.0856 46.6196C18.9426 46.5464 18.784 46.5076 18.6234 46.5061H6.20778V11.3681H45.5238C47.8092 11.3681 49.6623 9.51719 49.6623 7.23428V5.16734C49.6623 4.59661 49.199 4.13387 48.6276 4.13387H45.5238V6.20081H47.593V7.23428C47.593 8.37573 46.6665 9.30121 45.5238 9.30121C44.381 9.30121 43.4545 8.37573 43.4545 7.23428V4.13387C43.4545 2.99241 44.381 2.06694 45.5238 2.06694H49.6623C50.805 2.06694 51.7315 2.99241 51.7315 4.13387V27.9036H53.8008V4.13387C53.8008 1.85096 51.9478 0 49.6623 0H4.13852C1.85253 0 0 1.85096 0 4.13387V7.23428C0 9.51719 1.85253 11.3681 4.13852 11.3681V46.5061H3.10389C1.38978 46.5061 0 47.8943 0 49.6065C0 51.3186 1.38978 52.7069 3.10389 52.7069H4.13852ZM2.06926 7.23428V4.13387C2.06926 2.99241 2.99578 2.06694 4.13852 2.06694H41.9601C41.5878 2.69267 41.3893 3.40621 41.3852 4.13387V7.23428C41.3893 7.96194 41.5878 8.67548 41.9601 9.30121H4.13852C2.99578 9.30121 2.06926 8.37573 2.06926 7.23428ZM20.4481 49.6065L18.3788 50.6399H17.5887V48.573H18.3788L20.4481 49.6065ZM2.06926 49.6065C2.06926 49.0357 2.53252 48.573 3.10389 48.573H15.5195V50.6399H3.10389C2.53252 50.6399 2.06926 50.1772 2.06926 49.6065Z" fill="#333333"/>
<path d="M0 15.502H2.06926V36.1714H0V15.502Z" fill="#333333"/>
<path d="M40.3506 16.5355V14.4685H26.9004C26.6261 14.4685 26.3629 14.5775 26.1689 14.7713L24.2785 16.6596C19.759 13.3508 13.4982 13.8337 9.54103 17.7965C9.13738 18.1997 9.13738 18.8542 9.54103 19.2574L16.8572 26.5654C17.0507 26.7597 17.3139 26.8697 17.5887 26.8702H27.935C28.5064 26.8702 28.9697 26.4074 28.9697 25.8367C28.9686 22.9275 27.8471 20.1304 25.8365 18.0256L27.3288 16.5355H40.3506ZM26.8423 24.8032H18.0171L11.776 18.5691C14.9567 16.0253 19.4266 15.8517 22.7957 18.1407L19.9611 20.9721L21.4241 22.4335L24.379 19.482C25.7551 20.9429 26.6195 22.81 26.8423 24.8032Z" fill="#333333"/>
<path d="M42.4199 14.4686H44.4891V16.5355H42.4199V14.4686Z" fill="#333333"/>
<path d="M11.3809 29.9706H13.4502V32.0375H11.3809V29.9706Z" fill="#333333"/>
<path d="M15.5195 29.9706H25.8658V32.0375H15.5195V29.9706Z" fill="#333333"/>
<path d="M9.31168 34.1044H25.8658V36.1714H9.31168V34.1044Z" fill="#333333"/>
<path d="M32.0736 18.6024H34.1428V20.6694H32.0736V18.6024Z" fill="#333333"/>
<path d="M36.2121 18.6024H44.4891V20.6694H36.2121V18.6024Z" fill="#333333"/>
<path d="M32.0736 22.7363H44.4891V24.8032H32.0736V22.7363Z" fill="#333333"/>
<path d="M9.31168 38.2383H22.7619V40.3052H9.31168V38.2383Z" fill="#333333"/>
</svg>
