<svg width="62" height="62" viewBox="0 0 62 62" fill="none" xmlns="http://www.w3.org/2000/svg">
<path d="M15.4588 4.50022C14.8824 4.00773 14.0315 4.01439 13.4628 4.51572L9.30449 8.23778V7.75002C9.30449 7.1793 8.842 6.71672 8.27141 6.71672C7.70081 6.71672 7.23833 7.1793 7.23833 7.75002V10.0885L5.516 11.6302C5.09723 12.0123 5.06442 12.6605 5.44252 13.083C5.82061 13.5055 6.46833 13.5442 6.89413 13.1699L14.47 6.3871L22.0459 13.1699C22.3202 13.4202 22.7079 13.504 23.061 13.3894C23.4143 13.2747 23.6787 12.9792 23.7538 12.6153C23.8289 12.2516 23.7029 11.8754 23.424 11.6302L15.4588 4.50022Z" fill="#333333"/>
<path d="M20.6688 14.4667C20.0982 14.4667 19.6358 14.9293 19.6358 15.5V22.7333H9.30449V15.5C9.30449 14.9293 8.842 14.4667 8.27141 14.4667C7.70081 14.4667 7.23833 14.9293 7.23833 15.5V23.3895C7.2485 24.1785 7.89597 24.8099 8.68474 24.8H20.2556C21.0449 24.808 21.6918 24.1758 21.702 23.3864V15.5C21.7019 14.9293 21.2393 14.4667 20.6688 14.4667Z" fill="#333333"/>
<path d="M14.4701 26.8668C10.4761 26.8668 7.23833 30.1053 7.23833 34.1001C7.23833 38.0948 10.4762 41.3334 14.4701 41.3334C18.4641 41.3334 21.7019 38.0948 21.7019 34.1001C21.6973 30.1071 18.4622 26.8712 14.4701 26.8668ZM9.30449 34.1001C9.30763 31.6457 11.0335 29.5311 13.4369 29.0368V33.5142L9.61442 35.8071C9.4143 35.26 9.30945 34.6827 9.30449 34.1001ZM10.6791 37.579L14.31 35.4L17.3143 38.405C15.2037 39.8133 12.3801 39.4617 10.6791 37.579ZM18.7751 36.9438L15.5032 33.6722V29.0368C17.1851 29.3776 18.5873 30.5331 19.2436 32.1191C19.8998 33.7051 19.7243 35.5137 18.7751 36.9438Z" fill="#333333"/>
<path d="M55.7949 18.6V15.0629C55.7943 14.1632 55.0652 13.4339 54.1657 13.4333H51.2254C50.3258 13.4339 49.5968 14.1632 49.5962 15.0629V18.6H47.5299V12.121C47.5288 11.1342 46.7293 10.3345 45.7425 10.3333H43.1184C42.1319 10.3345 41.3324 11.1342 41.3312 12.121V18.6H39.265V7.23331C39.265 6.09188 38.3399 5.1666 37.1987 5.1666H35.1324C33.9912 5.1666 33.0662 6.09188 33.0662 7.23331V18.6H32.0331C31.4625 18.6 31 18.1373 31 17.5667V5.16672C31 4.596 30.5374 4.13342 29.9669 4.13342C29.3964 4.13342 28.9338 4.596 28.9338 5.16672V17.5667C28.9338 19.2788 30.3214 20.6667 32.0332 20.6667H55.795C56.3656 20.6667 56.8281 20.2042 56.8281 19.6335C56.8281 19.0627 56.3655 18.6 55.7949 18.6ZM37.1987 18.6H35.1324V7.23331H37.1987V18.6ZM45.4637 18.6H43.3974V12.4H45.4637V18.6ZM53.7286 18.6H51.6624V15.5H53.7287L53.7286 18.6Z" fill="#333333"/>
<path d="M55.7949 39.2668H32.0331C31.4625 39.2668 31 38.8042 31 38.2335V36.5946L34.402 33.1919C34.8102 32.8 35.4547 32.8 35.8628 33.1919L37.0737 34.4029C38.284 35.6131 40.2459 35.6131 41.4561 34.4029L45.7663 30.0919C46.1744 29.7 46.819 29.7 47.2271 30.0919L48.4379 31.304C49.6496 32.5108 51.6087 32.5108 52.8203 31.304L56.5252 27.5984C56.9167 27.193 56.9111 26.5484 56.5126 26.1499C56.114 25.7512 55.4697 25.7457 55.0644 26.1373L51.3595 29.8418C50.9561 30.2452 50.3021 30.2452 49.8987 29.8418L48.6879 28.6307C47.4615 27.46 45.5318 27.46 44.3055 28.6307L39.9953 32.9418C39.5919 33.3452 38.9379 33.3452 38.5345 32.9418L37.3248 31.7307C36.0981 30.5599 34.1679 30.5599 32.9412 31.7307L31 33.6724V25.8335C31 25.2627 30.5374 24.8002 29.9669 24.8002C29.3964 24.8002 28.9338 25.2629 28.9338 25.8335V38.2335C28.9338 39.9455 30.3214 41.3335 32.0332 41.3335H55.795C56.3656 41.3335 56.8281 40.8708 56.8281 40.3002C56.828 39.7294 56.3655 39.2668 55.7949 39.2668Z" fill="#333333"/>
<path d="M61.9936 48.0025V5.7298C62.1373 2.72498 59.8309 0.166746 56.828 0H5.17205C2.16906 0.166868 -0.1373 2.7251 0.00640871 5.7298V48.0025C-0.137784 51.0077 2.16858 53.5665 5.17205 53.7334H21.7019V55.8001H17.5695C15.2872 55.8001 13.437 57.6507 13.437 59.9334V60.9667C13.437 61.5374 13.8995 62 14.4701 62H47.53C48.1006 62 48.5631 61.5374 48.5631 60.9667V59.9334C48.5631 57.6507 46.7129 55.8001 44.4306 55.8001H40.2982V53.7334H56.8281C59.8314 53.5667 62.1378 51.0077 61.9936 48.0025ZM44.4305 57.8668C45.5717 57.8668 46.4968 58.7921 46.4968 59.9335H15.5032C15.5032 58.7921 16.4283 57.8668 17.5695 57.8668H44.4305ZM23.7682 55.8001V53.7334H38.2319V55.8001H23.7682ZM56.828 51.6668H5.17205C3.31231 51.4961 1.93298 49.8653 2.07269 48.0026V45.4668H59.9274V48.0026C60.0672 49.8653 58.6878 51.4961 56.828 51.6668ZM59.9273 5.7298V43.4001H2.07269V5.7298C1.93298 3.86726 3.31243 2.23685 5.17205 2.06659H56.8281C58.6876 2.23685 60.0672 3.86726 59.9273 5.7298Z" fill="#333333"/>
</svg>
