<svg width="20" height="19" viewBox="0 0 20 19" fill="none" xmlns="http://www.w3.org/2000/svg">
<path d="M7.05304 9.49994C7.05304 7.76298 8.4608 6.35452 10.1978 6.35452C11.9349 6.35452 13.3434 7.76298 13.3434 9.49994C13.3434 11.2369 11.9349 12.6453 10.1978 12.6453C8.4608 12.6453 7.05304 11.2369 7.05304 9.49994ZM5.35262 9.49994C5.35262 12.1758 7.52181 14.3449 10.1978 14.3449C12.8738 14.3449 15.043 12.1758 15.043 9.49994C15.043 6.82403 12.8738 4.65493 10.1978 4.65493C7.52181 4.65493 5.35262 6.82403 5.35262 9.49994ZM14.1025 4.46282C14.1024 4.68676 14.1688 4.9057 14.2931 5.09195C14.4175 5.2782 14.5942 5.42339 14.8011 5.50917C15.008 5.59495 15.2356 5.61747 15.4553 5.57387C15.675 5.53027 15.8768 5.42251 16.0352 5.26422C16.1936 5.10594 16.3015 4.90423 16.3453 4.68461C16.3891 4.46499 16.3667 4.23733 16.2811 4.0304C16.1955 3.82347 16.0504 3.64658 15.8643 3.52209C15.6781 3.3976 15.4592 3.33111 15.2353 3.33102C14.9351 3.33116 14.6468 3.45043 14.4345 3.66264C14.2222 3.87485 14.1028 4.16265 14.1025 4.46282ZM6.38574 17.1802C5.46578 17.1383 4.96575 16.9851 4.63346 16.8556C4.19292 16.6841 3.87859 16.4799 3.54811 16.1498C3.21763 15.8198 3.01306 15.5058 2.84231 15.0653C2.71277 14.7332 2.55953 14.233 2.51771 13.3131C2.47197 12.3185 2.46283 12.0197 2.46283 9.50001C2.46283 6.98029 2.47272 6.68235 2.51771 5.68694C2.55961 4.76702 2.71398 4.26785 2.84231 3.93474C3.01381 3.49421 3.21808 3.1799 3.54811 2.84943C3.87814 2.51896 4.19216 2.3144 4.63346 2.14366C4.9656 2.01413 5.46578 1.86089 6.38574 1.81908C7.38035 1.77333 7.67913 1.7642 10.1978 1.7642C12.7165 1.7642 13.0156 1.77409 14.011 1.81908C14.931 1.86097 15.4302 2.01533 15.7633 2.14366C16.2039 2.3144 16.5182 2.51942 16.8487 2.84943C17.1792 3.17945 17.383 3.49421 17.5545 3.93474C17.684 4.26687 17.8372 4.76702 17.8791 5.68694C17.9248 6.68235 17.9339 6.98029 17.9339 9.50001C17.9339 12.0197 17.9248 12.3177 17.8791 13.3131C17.8372 14.233 17.6832 14.733 17.5545 15.0653C17.383 15.5058 17.1787 15.8201 16.8487 16.1498C16.5186 16.4796 16.2039 16.6841 15.7633 16.8556C15.4312 16.9851 14.931 17.1384 14.011 17.1802C13.0164 17.2259 12.7177 17.2351 10.1978 17.2351C7.678 17.2351 7.38005 17.2259 6.38574 17.1802ZM6.30761 0.121594C5.3031 0.167338 4.6167 0.326609 4.01726 0.559854C3.39646 0.800723 2.87092 1.12387 2.34575 1.64818C1.82059 2.17249 1.49826 2.69884 1.25738 3.31962C1.02413 3.91941 0.864852 4.60541 0.819106 5.60988C0.772607 6.61593 0.761963 6.93756 0.761963 9.49994C0.761963 12.0623 0.772607 12.3839 0.819106 13.39C0.864852 14.3945 1.02413 15.0805 1.25738 15.6803C1.49826 16.3007 1.82067 16.8276 2.34575 17.3517C2.87084 17.8758 3.39646 18.1985 4.01726 18.44C4.61783 18.6733 5.3031 18.8325 6.30761 18.8783C7.31423 18.924 7.63535 18.9354 10.1978 18.9354C12.7603 18.9354 13.082 18.9248 14.088 18.8783C15.0926 18.8325 15.7786 18.6733 16.3784 18.44C16.9988 18.1985 17.5247 17.876 18.0499 17.3517C18.5751 16.8274 18.8967 16.3007 19.1383 15.6803C19.3715 15.0805 19.5316 14.3945 19.5765 13.39C19.6223 12.3832 19.6329 12.0623 19.6329 9.49994C19.6329 6.93756 19.6223 6.61593 19.5765 5.60988C19.5308 4.60534 19.3715 3.91904 19.1383 3.31962C18.8967 2.69922 18.5742 2.17332 18.0499 1.64818C17.5256 1.12304 16.9988 0.800723 16.3791 0.559854C15.7786 0.326609 15.0925 0.166583 14.0888 0.121594C13.0827 0.0758512 12.7611 0.0644531 10.1986 0.0644531C7.6361 0.0644531 7.31423 0.0750964 6.30761 0.121594Z" fill="#334DA8"/>
</svg>
