<svg width="16" height="17" viewBox="0 0 16 17" fill="none" xmlns="http://www.w3.org/2000/svg">
<path d="M5.62432 8.49976C5.62432 7.0716 6.78181 5.91354 8.21004 5.91354C9.63826 5.91354 10.7964 7.0716 10.7964 8.49976C10.7964 9.92793 9.63826 11.086 8.21004 11.086C6.78181 11.086 5.62432 9.92793 5.62432 8.49976ZM4.2262 8.49976C4.2262 10.7 6.00976 12.4834 8.21004 12.4834C10.4103 12.4834 12.1939 10.7 12.1939 8.49976C12.1939 6.29958 10.4103 4.51609 8.21004 4.51609C6.00976 4.51609 4.2262 6.29958 4.2262 8.49976ZM11.4206 4.35814C11.4205 4.54226 11.475 4.72228 11.5773 4.87542C11.6795 5.02856 11.8249 5.14794 11.995 5.21847C12.165 5.289 12.3522 5.30751 12.5328 5.27166C12.7135 5.23581 12.8794 5.14721 13.0096 5.01707C13.1399 4.88692 13.2286 4.72107 13.2646 4.5405C13.3006 4.35992 13.2823 4.17273 13.2119 4.00259C13.1415 3.83245 13.0222 3.687 12.8691 3.58464C12.7161 3.48229 12.5361 3.42761 12.352 3.42754C12.1051 3.42766 11.8681 3.52573 11.6935 3.70021C11.519 3.8747 11.4208 4.11133 11.4206 4.35814ZM5.07565 14.8146C4.31924 14.7802 3.90811 14.6542 3.63489 14.5478C3.27267 14.4068 3.01422 14.2388 2.74249 13.9675C2.47076 13.6961 2.30256 13.4379 2.16216 13.0757C2.05566 12.8026 1.92966 12.3914 1.89528 11.635C1.85766 10.8173 1.85015 10.5716 1.85015 8.49983C1.85015 6.42805 1.85828 6.18308 1.89528 5.36464C1.92972 4.60826 2.05665 4.19782 2.16216 3.92393C2.30318 3.56172 2.47113 3.30329 2.74249 3.03157C3.01385 2.75985 3.27205 2.59166 3.63489 2.45127C3.90799 2.34476 4.31924 2.21877 5.07565 2.18439C5.89345 2.14678 6.13911 2.13927 8.21004 2.13927C10.281 2.13927 10.5269 2.1474 11.3454 2.18439C12.1018 2.21883 12.5122 2.34576 12.7861 2.45127C13.1483 2.59166 13.4068 2.76022 13.6785 3.03157C13.9502 3.30292 14.1178 3.56172 14.2588 3.92393C14.3653 4.19702 14.4913 4.60826 14.5257 5.36464C14.5633 6.18308 14.5708 6.42805 14.5708 8.49983C14.5708 10.5716 14.5633 10.8166 14.5257 11.635C14.4913 12.3914 14.3647 12.8025 14.2588 13.0757C14.1178 13.4379 13.9499 13.6964 13.6785 13.9675C13.4072 14.2386 13.1483 14.4068 12.7861 14.5478C12.513 14.6543 12.1018 14.7803 11.3454 14.8146C10.5276 14.8523 10.2819 14.8598 8.21004 14.8598C6.13818 14.8598 5.8932 14.8523 5.07565 14.8146ZM5.01141 0.788682C4.18549 0.826293 3.62111 0.957249 3.12824 1.14903C2.6178 1.34708 2.18569 1.61277 1.75389 2.04387C1.32209 2.47498 1.05706 2.90775 0.859006 3.41817C0.667219 3.91133 0.536257 4.47538 0.498645 5.30127C0.460412 6.12847 0.45166 6.39292 0.45166 8.49976C0.45166 10.6066 0.460412 10.8711 0.498645 11.6983C0.536257 12.5242 0.667219 13.0882 0.859006 13.5814C1.05706 14.0915 1.32215 14.5247 1.75389 14.9557C2.18563 15.3866 2.6178 15.6519 3.12824 15.8505C3.62204 16.0423 4.18549 16.1732 5.01141 16.2108C5.83908 16.2485 6.10311 16.2578 8.21004 16.2578C10.317 16.2578 10.5814 16.2491 11.4087 16.2108C12.2346 16.1732 12.7986 16.0423 13.2918 15.8505C13.802 15.6519 14.2344 15.3868 14.6662 14.9557C15.098 14.5246 15.3625 14.0915 15.5611 13.5814C15.7529 13.0882 15.8844 12.5242 15.9214 11.6983C15.959 10.8704 15.9678 10.6066 15.9678 8.49976C15.9678 6.39292 15.959 6.12847 15.9214 5.30127C15.8838 4.47531 15.7529 3.91102 15.5611 3.41817C15.3625 2.90806 15.0973 2.47566 14.6662 2.04387C14.2351 1.61209 13.802 1.34708 13.2925 1.14903C12.7986 0.957249 12.2346 0.825673 11.4093 0.788682C10.5821 0.751071 10.3176 0.741699 8.21066 0.741699C6.10373 0.741699 5.83908 0.75045 5.01141 0.788682Z" fill="#334DA8"/>
</svg>
