<svg width="200" height="57" viewBox="0 0 200 57" fill="none" xmlns="http://www.w3.org/2000/svg">
<path d="M30.5785 11.3305C38.3396 14.4349 43.7723 21.8855 43.7723 30.5779C43.7723 35.8554 41.7544 40.8225 38.3396 44.3926L39.1157 46.8761C43.3067 42.6852 45.9454 36.942 45.9454 30.4227C46.1006 19.8677 38.8052 10.8648 28.8711 8.22607C29.6472 9.1574 30.2681 10.2439 30.5785 11.3305Z" fill="#706F6F"/>
<path d="M30.7337 49.8261C28.4054 50.7574 25.7667 51.3783 22.9727 51.3783C20.0235 51.3783 17.2295 50.7574 14.746 49.6709L13.6594 51.6888C16.4534 52.9305 19.713 53.7066 22.9727 53.7066C26.2323 53.7066 29.1815 53.0858 31.9755 51.844L30.7337 49.8261Z" fill="#706F6F"/>
<path d="M6.82973 45.6349C6.82973 45.4797 6.82973 45.3245 6.98495 45.1693L7.29539 44.0827C4.19097 40.5126 2.32832 35.7008 2.32832 30.5785C2.32832 22.1966 7.45061 14.9012 14.5908 11.6415C14.9012 10.555 15.5221 9.46844 16.143 8.53711C6.82973 11.4863 0 20.3339 0 30.5785C0 36.7873 2.48354 42.5305 6.51929 46.7215L6.82973 45.6349Z" fill="#706F6F"/>
<path d="M34.6143 39.4262C34.6143 39.2709 34.4591 39.2709 34.6143 39.4262C34.4591 39.2709 34.3039 39.2709 34.3039 39.2709L33.8382 39.4262L32.7517 36.477C35.2352 35.3904 37.5635 33.9934 39.7366 32.286L39.8918 32.1308V31.9755L38.1844 29.9577C38.0292 29.8024 37.874 29.8024 37.874 29.9577C36.1665 31.5099 34.1487 32.7516 31.9756 33.683L31.5099 32.5964C33.5278 31.6651 35.3904 30.5785 37.0979 29.1816L37.2531 29.0263V28.8711L35.5456 26.8532C35.3904 26.698 35.2352 26.698 35.2352 26.8532C33.8382 28.095 32.286 29.0263 30.5786 29.8024L26.0772 17.2295C27.6294 16.143 28.7159 14.4356 28.7159 12.5729C28.7159 9.93415 27.0085 7.76105 24.3697 7.14017V1.39699C24.3697 0.620884 23.7488 0 22.9727 0C22.1966 0 21.5757 0.620884 21.5757 1.39699V6.67451C18.937 7.29539 17.0743 9.62371 17.0743 12.1072C17.0743 13.9699 18.0057 15.8325 19.7131 16.7639L15.0565 29.6472C13.8147 29.6472 12.5729 30.4233 11.952 31.5099C11.1759 33.0621 11.4864 34.9247 12.7281 36.0113L11.7968 38.8053L11.6416 38.65C11.4864 38.65 11.3312 38.65 11.3312 38.8053L9.62373 43.7723L8.38196 49.9812C8.38196 50.1364 8.38196 50.2916 8.53718 50.2916H8.6924L7.29541 54.9483C7.29541 55.1035 7.29541 55.2587 7.45063 55.2587C7.60585 55.2587 7.76107 55.2587 7.76107 55.1035L9.62373 50.6021H9.77895C9.93417 50.6021 10.0894 50.6021 10.0894 50.4468L12.8834 45.0141L14.5908 40.047C14.5908 39.8918 14.5908 39.7366 14.4356 39.7366L14.1251 39.5814L15.0565 37.2531C20.0235 38.8053 25.3011 38.8053 30.4233 37.2531L31.5099 40.2023L31.0442 40.3575C30.889 40.3575 30.889 40.5127 30.889 40.6679L32.5964 45.635L36.1665 50.4468C36.1665 50.6021 36.3217 50.6021 36.477 50.6021L37.0979 50.4468C38.0292 53.0856 39.7366 56.0348 39.7366 56.0348L39.8918 56.19C39.8918 56.19 39.8918 56.19 40.0471 56.19C40.2023 56.19 40.2023 56.0348 40.2023 55.8796L34.6143 39.4262ZM23.2832 17.6952L27.7846 30.2681C24.3697 31.1994 20.7996 31.1994 17.3848 30.2681L21.8862 17.6952C22.5071 17.6952 22.9727 17.6952 23.2832 17.6952ZM28.8711 33.2173L29.3368 34.3039C25.1458 35.5456 20.7996 35.7008 16.4535 34.3039H16.2982C16.143 34.4591 15.8326 34.6143 15.5221 34.6143C14.746 34.6143 14.2804 33.9934 14.2804 33.3725C14.2804 32.5964 14.9012 32.1308 15.5221 32.1308C15.9878 32.1308 16.6087 32.4412 16.7639 33.0621C16.7639 33.2173 16.9191 33.2173 16.9191 33.2173C20.9549 34.4591 24.9906 34.3039 28.8711 33.2173ZM22.6623 15.5221C20.7996 15.5221 19.2474 13.9699 19.2474 12.1072C19.2474 10.2446 20.7996 8.69238 22.6623 8.69238C24.525 8.69238 26.0772 10.2446 26.0772 12.1072C26.0772 13.9699 24.525 15.5221 22.6623 15.5221Z" fill="#334DA8"/>
<path d="M69.4716 17.1753V29.288H67.1214V18.9832H62.7825V29.288H60.4323V17.1753H69.4716Z" fill="#333333"/>
<path d="M79.5956 25.31H73.8104C73.8104 26.2139 74.172 26.9371 74.5336 27.2986C74.8952 27.6602 75.4375 27.841 76.1607 27.841C76.5222 27.841 76.8838 27.841 77.2454 27.6602C77.607 27.4794 77.9685 27.2986 78.3301 27.1178L79.2341 28.3834C78.1493 29.2873 77.0646 29.6489 75.7991 29.6489C74.3528 29.6489 73.2681 29.2873 72.5449 28.3834C71.8218 27.4794 71.4602 26.3947 71.4602 24.7676C71.4602 23.8637 71.641 22.9597 72.0026 22.2366C72.3641 21.5134 72.7257 20.9711 73.4489 20.4287C73.9912 20.0671 74.8952 19.7056 75.6183 19.7056C76.8838 19.7056 77.9685 20.0671 78.6917 20.9711C79.4148 21.875 79.7764 22.9597 79.7764 24.406C79.5956 24.5868 79.5956 24.7676 79.5956 25.31ZM77.4262 23.8637C77.4262 22.2366 76.8838 21.5134 75.6183 21.5134C75.0759 21.5134 74.7144 21.6942 74.3528 22.0558C73.9912 22.4174 73.8104 23.1405 73.8104 24.0445L77.4262 23.8637Z" fill="#333333"/>
<path d="M88.8158 20.9717C89.3582 21.8756 89.7198 22.9603 89.7198 24.5874C89.7198 25.4914 89.539 26.3953 89.3582 27.1185C88.9966 27.8416 88.6351 28.384 88.0927 28.9263C87.5503 29.2879 86.8272 29.4687 86.104 29.4687C85.2001 29.4687 84.2962 29.1071 83.7538 28.384V32.7229L81.5844 32.9036V19.887H83.573L83.7538 20.9717C84.1154 20.4293 84.4769 20.0678 85.0193 19.887C85.5617 19.7062 85.9232 19.5254 86.4656 19.5254C87.3695 19.7062 88.2735 20.2485 88.8158 20.9717ZM87.3695 24.5874C87.3695 23.5027 87.1888 22.5988 87.008 22.0564C86.6464 21.5141 86.2848 21.3333 85.7425 21.3333C85.3809 21.3333 85.0193 21.514 84.6577 21.6948C84.2962 21.8756 84.1154 22.2372 83.7538 22.5988V26.7569C84.1154 27.48 84.8385 27.6608 85.3809 27.6608C86.6464 27.8416 87.3695 26.7569 87.3695 24.5874Z" fill="#333333"/>
<path d="M99.4823 26.3947C99.4823 27.2986 99.1208 28.0218 98.3976 28.5641C97.6745 29.1065 96.7705 29.2873 95.505 29.2873H91.8893V20.0671C93.1548 19.8864 94.2395 19.7056 95.3242 19.7056C96.5898 19.7056 97.4937 19.8864 98.2168 20.4287C98.94 20.7903 99.3016 21.5134 99.3016 22.2366C99.3016 22.7789 99.1208 23.1405 98.7592 23.5021C98.3976 23.8637 98.036 24.0445 97.3129 24.2252C98.5784 24.406 99.4823 25.1292 99.4823 26.3947ZM94.0587 21.3327V23.6829H95.3242C96.2282 23.6829 96.7705 23.3213 96.7705 22.4174C96.7705 21.6942 96.2282 21.1519 95.1435 21.1519C94.7819 21.3327 94.4203 21.3327 94.0587 21.3327ZM97.1321 26.2139C97.1321 25.8523 96.9513 25.4908 96.7705 25.31C96.5898 25.1292 96.0474 24.9484 95.505 24.9484H94.0587V27.6602H95.505C96.5897 27.6602 97.1321 27.2986 97.1321 26.2139Z" fill="#333333"/>
<path d="M107.618 23.6833C108.341 24.2256 108.702 24.9488 108.702 26.0335C108.702 27.1182 108.341 27.8414 107.618 28.3837C106.895 28.9261 105.991 29.1069 104.906 29.1069H101.471V19.8867H103.64V22.7793H104.364C105.81 22.9601 106.895 23.1409 107.618 23.6833ZM106.171 26.0335C106.171 25.4911 105.991 25.1295 105.81 24.768C105.448 24.5872 105.087 24.4064 104.364 24.4064H103.64V27.6606H104.544C105.629 27.6606 106.171 27.1182 106.171 26.0335ZM109.606 20.0675H111.776V29.2877H109.606V20.0675Z" fill="#333333"/>
<path d="M122.081 29.2878H119.911V25.4913C119.911 24.7681 119.911 24.2258 119.911 23.5026C119.911 22.9602 120.092 22.4179 120.092 22.0563L116.657 29.2878H114.307V20.0677H116.476V23.8642C116.476 24.5873 116.476 25.1297 116.296 25.8528C116.296 26.3952 116.115 26.9376 116.115 27.1184L119.55 20.0677H122.081V29.2878ZM116.296 17.5366C115.753 17.1751 115.572 16.4519 115.392 15.7288L116.657 15.3672C116.838 15.7288 117.019 16.0903 117.199 16.0903C117.38 16.2711 117.742 16.2711 118.103 16.2711C118.465 16.2711 118.827 16.2711 119.188 16.0903C119.369 15.9096 119.55 15.7288 119.731 15.3672L120.996 15.548C120.996 16.2711 120.634 16.8135 120.092 17.3558C119.55 17.7174 118.827 18.079 118.103 18.079C117.38 18.079 116.657 17.8982 116.296 17.5366Z" fill="#333333"/>
<path d="M136.905 29.2877H134.736V25.4911C134.736 24.768 134.736 24.2256 134.736 23.5025C134.736 22.9601 134.917 22.4177 134.917 22.0562L131.482 29.1069H129.131V19.8867H131.301V23.6833C131.301 24.4064 131.301 24.9488 131.12 25.6719C131.12 26.2143 130.939 26.7566 130.939 26.9374L134.374 19.8867H136.724V29.2877H136.905Z" fill="#333333"/>
<path d="M144.679 29.2875V25.491H141.606V29.2875H139.436V20.0674H141.606V23.6831H144.679V20.0674H146.849V29.2875H144.679Z" fill="#333333"/>
<path d="M160.769 20.0674L158.6 24.4063L161.131 29.2875H158.78L156.792 25.1294H155.707V29.2875H153.718V25.1294H152.814L150.826 29.2875H148.476L151.007 24.4063L148.837 20.0674H151.007L152.814 23.8639H153.899V20.0674H155.888V23.8639H156.973L158.78 20.0674H160.769Z" fill="#333333"/>
<path d="M169.989 25.31H164.204C164.204 26.2139 164.566 26.9371 164.927 27.2986C165.289 27.6602 165.831 27.841 166.554 27.841C166.916 27.841 167.277 27.841 167.639 27.6602C168.001 27.4794 168.362 27.2986 168.724 27.1178L169.628 28.3834C168.543 29.2873 167.458 29.6489 166.193 29.6489C164.746 29.6489 163.662 29.2873 162.939 28.3834C162.215 27.4794 161.854 26.3947 161.854 24.7676C161.854 23.8637 162.035 22.9597 162.396 22.2366C162.758 21.5134 163.119 20.9711 163.843 20.4287C164.385 20.0671 165.289 19.7056 166.012 19.7056C167.278 19.7056 168.362 20.0671 169.085 20.9711C169.809 21.875 170.17 22.9597 170.17 24.406C169.989 24.5868 169.989 24.7676 169.989 25.31ZM167.82 23.8637C167.82 22.2366 167.278 21.5134 166.012 21.5134C165.47 21.5134 165.108 21.6942 164.746 22.0558C164.385 22.4174 164.204 23.1405 164.204 24.0445L167.82 23.8637Z" fill="#333333"/>
<path d="M177.221 29.2875V25.491H174.147V29.2875H171.978V20.0674H174.147V23.6831H177.221V20.0674H179.39V29.2875H177.221Z" fill="#333333"/>
<path d="M189.695 25.31H183.91C183.91 26.2139 184.271 26.9371 184.633 27.2986C184.995 27.6602 185.537 27.841 186.26 27.841C186.622 27.841 186.983 27.841 187.345 27.6602C187.706 27.4794 188.068 27.2986 188.43 27.1178L189.334 28.3834C188.249 29.2873 187.164 29.6489 185.899 29.6489C184.452 29.6489 183.368 29.2873 182.644 28.3834C181.921 27.4794 181.56 26.3947 181.56 24.7676C181.56 23.8637 181.74 22.9597 182.102 22.2366C182.464 21.5134 182.825 20.9711 183.548 20.4287C184.091 20.0671 184.995 19.7056 185.718 19.7056C186.983 19.7056 188.068 20.0671 188.791 20.9711C189.514 21.875 189.876 22.9597 189.876 24.406C189.695 24.5868 189.695 24.7676 189.695 25.31ZM187.526 23.8637C187.526 22.2366 186.983 21.5134 185.718 21.5134C185.175 21.5134 184.814 21.6942 184.452 22.0558C184.091 22.4174 183.91 23.1405 183.91 24.0445L187.526 23.8637Z" fill="#333333"/>
<path d="M199.096 20.9717C199.638 21.8756 200 22.9603 200 24.5874C200 25.4914 199.819 26.3953 199.638 27.1185C199.277 27.8416 198.915 28.384 198.373 28.9263C197.83 29.2879 197.107 29.4687 196.384 29.4687C195.48 29.4687 194.576 29.1071 194.034 28.384V32.7229L191.865 32.9036V19.887H193.853L194.034 20.9717C194.396 20.4293 194.757 20.0678 195.299 19.887C195.842 19.7062 196.203 19.5254 196.746 19.5254C197.65 19.7062 198.373 20.2485 199.096 20.9717ZM197.469 24.5874C197.469 23.5027 197.288 22.5988 197.107 22.0564C196.746 21.5141 196.384 21.3333 195.842 21.3333C195.48 21.3333 195.119 21.514 194.757 21.6948C194.396 21.8756 194.215 22.2372 193.853 22.5988V26.7569C194.215 27.48 194.938 27.6608 195.48 27.6608C196.927 27.8416 197.469 26.7569 197.469 24.5874Z" fill="#333333"/>
<path d="M65.9174 36.519V44.8995H64.748V37.4935H61.2399V44.8995H60.0706V36.519H65.9174Z" fill="#333333"/>
<path d="M72.9338 39.2474C73.3236 39.8321 73.5185 40.6117 73.5185 41.7811C73.5185 42.7555 73.3236 43.5351 72.9338 44.1198C72.544 44.7045 71.9594 45.0943 71.1798 45.0943C70.4002 45.0943 70.0104 44.8994 69.4257 44.3147V47.2381L68.2563 47.433V38.4678H69.2308V39.2474C69.4257 38.8576 69.8155 38.6627 70.0104 38.4678C70.4002 38.2729 70.5951 38.2729 70.9849 38.2729C71.9594 38.2729 72.544 38.6627 72.9338 39.2474ZM72.1543 41.5862C72.1543 40.027 71.7645 39.2474 70.79 39.2474C70.4002 39.2474 70.2053 39.2474 70.0104 39.4423C69.8155 39.6372 69.6206 39.8321 69.4257 40.2219V43.3402C69.6206 43.5351 69.8155 43.73 70.0104 43.9249C70.2053 44.1198 70.5951 44.1198 70.79 44.1198C71.7645 44.1198 72.1543 43.3402 72.1543 41.5862Z" fill="#333333"/>
<path d="M79.95 39.2474C80.5347 39.8321 80.7295 40.6117 80.7295 41.5862C80.7295 42.1709 80.5346 42.7555 80.3398 43.3402C80.1449 43.9249 79.7551 44.3147 79.3653 44.5096C78.9755 44.7045 78.3908 44.8994 77.8061 44.8994C76.8316 44.8994 76.247 44.5096 75.6623 43.9249C75.0776 43.3402 74.8827 42.5606 74.8827 41.5862C74.8827 41.0015 75.0776 40.4168 75.2725 39.8321C75.4674 39.2474 75.8572 38.8576 76.247 38.6627C76.6367 38.4678 77.2214 38.2729 77.8061 38.2729C78.5857 38.2729 79.3653 38.6627 79.95 39.2474ZM76.0521 41.5862C76.0521 43.1453 76.6367 43.9249 77.6112 43.9249C78.7806 43.9249 79.1704 43.1453 79.1704 41.5862C79.1704 40.027 78.5857 39.2474 77.6112 39.2474C76.6367 39.2474 76.0521 40.027 76.0521 41.5862Z" fill="#333333"/>
<path d="M87.356 41.9764H83.2632C83.2632 42.756 83.4581 43.1457 83.8479 43.5355C84.2377 43.9253 84.6275 44.1202 85.0172 44.1202C85.407 44.1202 85.6019 44.1202 85.7968 43.9253C85.9917 43.9253 86.3815 43.7304 86.5764 43.5355L86.9662 44.1202C86.3815 44.7049 85.6019 44.8998 84.8224 44.8998C83.8479 44.8998 83.2632 44.7049 82.6785 44.1202C82.0938 43.5355 81.8989 42.756 81.8989 41.7815C81.8989 41.1968 82.0938 40.6121 82.2887 40.0274C82.4836 39.4427 82.8734 39.0529 83.2632 38.858C83.653 38.6632 84.0428 38.4683 84.6275 38.4683C85.407 38.4683 86.1866 38.6632 86.5764 39.2478C86.9662 39.8325 87.1611 40.6121 87.1611 41.5866C87.356 41.5866 87.356 41.7815 87.356 41.9764ZM86.1866 41.1968C86.1866 40.6121 85.9917 40.0274 85.7968 39.8325C85.6019 39.4427 85.2121 39.2478 84.6275 39.2478C83.653 39.2478 83.2632 39.8325 83.0683 41.1968H86.1866Z" fill="#333333"/>
<path d="M93.9825 38.4678L92.0335 41.3913L94.1774 44.7045H92.8131L91.0591 41.7811H90.2795V44.7045H89.1101V38.2729H90.2795V40.8066H91.0591L92.6182 38.2729H93.9825V38.4678Z" fill="#333333"/>
<path d="M100.219 38.4683L100.024 39.4427H98.0752V44.8998H96.9058V39.4427H94.762V38.4683H100.219Z" fill="#333333"/>
<path d="M105.286 44.8998V42.1713H102.558V44.8998H101.583V38.4683H102.753V41.1968H105.481V38.4683H106.651V44.8998H105.286Z" fill="#333333"/>
<path d="M113.277 43.9253C113.277 44.1202 113.472 44.1202 113.667 44.1202L113.277 44.8998C112.887 44.8998 112.692 44.7049 112.497 44.7049C112.302 44.51 112.108 44.3151 112.108 44.1202C111.718 44.7049 111.133 45.0947 110.159 45.0947C109.574 45.0947 108.989 44.8998 108.599 44.51C108.21 44.1202 108.015 43.7304 108.015 43.1457C108.015 42.5611 108.21 41.9764 108.794 41.5866C109.184 41.1968 109.964 41.0019 110.938 41.0019H111.913V40.6121C111.913 40.2223 111.718 39.8325 111.523 39.6376C111.328 39.4427 111.133 39.2478 110.548 39.2478C110.159 39.2478 109.574 39.4427 108.794 39.6376L108.599 38.858C109.379 38.6632 110.159 38.4683 110.743 38.4683C111.523 38.4683 112.108 38.6632 112.497 39.0529C112.887 39.4427 113.082 40.0274 113.082 40.6121V43.5355C113.082 43.5355 113.082 43.7304 113.277 43.9253ZM111.913 43.1457V41.7815H111.133C109.964 41.7815 109.379 42.1713 109.379 43.1457C109.379 43.5355 109.379 43.7304 109.574 43.9253C109.769 44.1202 109.964 44.1202 110.354 44.1202C111.133 44.1202 111.523 43.7304 111.913 43.1457Z" fill="#333333"/>
<path d="M119.903 38.4683V44.8998H118.734V42.5611H117.37L116.006 44.8998H114.836L116.395 42.1713C115.616 41.7815 115.226 41.1968 115.226 40.4172C115.226 39.8325 115.421 39.2478 115.811 39.0529C116.2 38.6632 116.98 38.4683 117.76 38.4683H119.903ZM118.734 41.5866V39.4427H117.76C117.37 39.4427 116.98 39.4427 116.785 39.6376C116.59 39.8325 116.395 40.0274 116.395 40.4172C116.395 40.807 116.59 41.1968 116.785 41.1968C116.98 41.3917 117.37 41.3917 117.76 41.3917H118.734V41.5866Z" fill="#333333"/>
<path d="M130.038 38.4678L128.089 41.3913L130.233 44.7045H128.869L127.115 41.7811H126.335V44.7045H125.166V38.2729H126.335V40.8066H127.115L128.674 38.2729H130.038V38.4678Z" fill="#333333"/>
<path d="M136.08 39.2474C136.665 39.8321 136.859 40.6117 136.859 41.5862C136.859 42.1709 136.665 42.7555 136.47 43.3402C136.275 43.9249 135.885 44.3147 135.495 44.5096C135.105 44.7045 134.521 44.8994 133.936 44.8994C132.962 44.8994 132.377 44.5096 131.792 43.9249C131.207 43.3402 131.013 42.5606 131.013 41.5862C131.013 41.0015 131.207 40.4168 131.402 39.8321C131.597 39.2474 131.987 38.8576 132.377 38.6627C132.767 38.4678 133.351 38.2729 133.936 38.2729C134.91 38.2729 135.495 38.6627 136.08 39.2474ZM132.377 41.5862C132.377 43.1453 132.962 43.9249 133.936 43.9249C135.105 43.9249 135.495 43.1453 135.495 41.5862C135.495 40.027 134.91 39.2474 133.936 39.2474C132.962 39.2474 132.377 40.027 132.377 41.5862Z" fill="#333333"/>
<path d="M144.85 44.8997H143.681L143.486 41.9763C143.486 41.5865 143.486 41.3916 143.486 41.0018C143.486 40.612 143.486 40.2222 143.486 39.8325L142.122 44.315H141.147L139.783 39.8325C139.783 40.8069 139.783 41.5865 139.783 42.1712L139.588 45.0946H138.613L139.198 38.6631H140.562L141.732 43.1457L143.096 38.6631H144.46L144.85 44.8997Z" fill="#333333"/>
<path d="M150.502 44.8998V39.4427H147.968V44.8998H146.799V38.4683H151.671V44.8998H150.502Z" fill="#333333"/>
<path d="M158.298 43.9253C158.298 44.1202 158.493 44.1202 158.688 44.1202L158.493 44.8998C158.103 44.8998 157.908 44.7049 157.713 44.7049C157.518 44.51 157.323 44.3151 157.323 44.1202C156.933 44.7049 156.349 45.0947 155.374 45.0947C154.79 45.0947 154.205 44.8998 153.815 44.51C153.425 44.1202 153.23 43.7304 153.23 43.1457C153.23 42.5611 153.425 41.9764 154.01 41.5866C154.4 41.1968 155.179 41.0019 156.154 41.0019H157.128V40.6121C157.128 40.2223 156.933 39.8325 156.739 39.6376C156.544 39.4427 156.154 39.2478 155.764 39.2478C155.374 39.2478 154.79 39.4427 154.01 39.6376L153.815 38.858C154.595 38.6632 155.374 38.4683 155.959 38.4683C156.739 38.4683 157.323 38.6632 157.713 39.0529C158.103 39.4427 158.298 40.0274 158.298 40.6121V43.5355C158.103 43.5355 158.298 43.7304 158.298 43.9253ZM157.128 43.1457V41.7815H156.154C154.985 41.7815 154.4 42.1713 154.4 43.1457C154.4 43.5355 154.4 43.7304 154.595 43.9253C154.79 44.1202 154.985 44.1202 155.374 44.1202C156.154 44.1202 156.739 43.7304 157.128 43.1457Z" fill="#333333"/>
<path d="M164.145 44.8998V42.1713H161.416V44.8998H160.247V38.4683H161.416V41.1968H164.145V38.4683H165.314V44.8998H164.145Z" fill="#333333"/>
<path d="M172.33 44.8998H171.161V41.9764C171.161 41.5866 171.161 41.0019 171.161 40.6121C171.161 40.2223 171.161 39.8325 171.161 39.8325L168.432 44.8998H167.068V38.4683H168.237V41.3917C168.237 41.7815 168.237 42.1713 168.237 42.756C168.237 43.1457 168.237 43.5355 168.237 43.5355L170.771 38.4683H172.135V44.8998H172.33Z" fill="#333333"/>
<path d="M179.152 38.4683V44.8998H177.982V42.5611H176.618L175.254 44.8998H174.084L175.644 42.1713C174.864 41.7815 174.474 41.1968 174.474 40.4172C174.474 39.8325 174.669 39.2478 175.059 39.0529C175.449 38.6632 176.228 38.4683 177.008 38.4683H179.152ZM177.982 41.5866V39.4427H177.008C176.618 39.4427 176.228 39.4427 176.033 39.6376C175.644 39.8325 175.644 40.0274 175.644 40.4172C175.644 40.807 175.838 41.1968 176.033 41.1968C176.228 41.3917 176.618 41.3917 177.008 41.3917H177.982V41.5866Z" fill="#333333"/>
</svg>
