<svg width="44" height="44" viewBox="0 0 44 44" fill="none" xmlns="http://www.w3.org/2000/svg">
<path d="M33.452 29.1069C32.0145 27.6877 30.2199 27.6877 28.7915 29.1069C27.702 30.1873 26.6124 31.2677 25.5411 32.3664C25.2481 32.6685 25.0009 32.7326 24.6438 32.5312C23.9387 32.1466 23.1879 31.8353 22.5104 31.4142C19.3515 29.4273 16.7053 26.8728 14.3614 23.9978C13.1985 22.5695 12.1639 21.0404 11.4405 19.3191C11.294 18.9712 11.3215 18.7423 11.6053 18.4585C12.6949 17.4055 13.757 16.3251 14.8283 15.2447C16.3208 13.7431 16.3208 11.9852 14.8192 10.4744C13.9676 9.61378 13.1161 8.77143 12.2646 7.91077C11.3856 7.03179 10.5157 6.14366 9.62759 5.27384C8.19007 3.87298 6.39545 3.87298 4.96708 5.283C3.86834 6.36341 2.81538 7.47128 1.69832 8.53337C0.663666 9.51306 0.141762 10.7125 0.0318876 12.1134C-0.14208 14.3932 0.416448 16.5449 1.20388 18.6416C2.81538 22.9815 5.26924 26.8362 8.24501 30.3704C12.2646 35.1498 17.0624 38.9312 22.6752 41.6597C25.2023 42.8866 27.821 43.8297 30.6686 43.9853C32.628 44.0952 34.331 43.6008 35.6953 42.0717C36.6293 41.0279 37.6822 40.0757 38.6711 39.0777C40.1361 37.5945 40.1452 35.7999 38.6894 34.3349C36.9497 32.5861 35.2009 30.8465 33.452 29.1069Z" fill="#334DA8"/>
<path d="M31.7032 21.8095L35.0819 21.2327C34.5508 18.1288 33.0858 15.318 30.8608 13.0839C28.5077 10.7308 25.5319 9.24754 22.254 8.78974L21.7779 12.1866C24.3142 12.5437 26.6215 13.6882 28.4436 15.5102C30.165 17.2316 31.2912 19.4107 31.7032 21.8095Z" fill="#334DA8"/>
<path d="M36.9863 7.12335C33.0858 3.22291 28.1506 0.759946 22.7027 0L22.2265 3.39687C26.9328 4.0561 31.1996 6.18944 34.5691 9.54969C37.7646 12.7451 39.8614 16.7829 40.6214 21.2236L44 20.6467C43.1118 15.5011 40.6855 10.8315 36.9863 7.12335Z" fill="#334DA8"/>
</svg>
