<svg width="19" height="13" viewBox="0 0 19 13" fill="none" xmlns="http://www.w3.org/2000/svg">
<path fill-rule="evenodd" clip-rule="evenodd" d="M18.5024 1.20575C18.6337 0.752541 18.5024 0.419434 17.8781 0.419434H15.8136C15.2886 0.419434 15.0468 0.707158 14.9155 1.02453C14.9155 1.02453 13.8656 3.67609 12.3783 5.39847C11.8971 5.89706 11.6784 6.05551 11.4159 6.05551C11.2847 6.05551 11.0948 5.89706 11.0948 5.44385V1.20575C11.0948 0.661777 10.9424 0.419434 10.5049 0.419434H7.26069C6.93273 0.419434 6.73542 0.671862 6.73542 0.911149C6.73542 1.42685 7.47894 1.54573 7.55562 2.99612V6.14643C7.55562 6.83709 7.43529 6.96239 7.1728 6.96239C6.47294 6.96239 4.77061 4.29875 3.76078 1.25113C3.56289 0.658721 3.3644 0.419434 2.83677 0.419434H0.77228C0.182424 0.419434 0.0644531 0.707158 0.0644531 1.02453C0.0644531 1.59111 0.764464 4.40144 3.3234 8.11818C5.02956 10.6562 7.43293 12.0323 9.62011 12.0323C10.9325 12.0323 11.0948 11.7267 11.0948 11.2003V9.28191C11.0948 8.67071 11.2191 8.54877 11.6345 8.54877C11.9409 8.54877 12.4657 8.70738 13.6907 9.93117C15.0904 11.3814 15.3211 12.0323 16.1085 12.0323H18.173C18.7629 12.0323 19.0578 11.7267 18.8876 11.1236C18.7015 10.5225 18.0332 9.65062 17.1464 8.61677C16.6652 8.02741 15.9434 7.39283 15.7248 7.07561C15.4185 6.66763 15.506 6.48641 15.7248 6.12397C15.7248 6.12397 18.24 2.45246 18.5024 1.2059V1.20575Z" fill="#334DA8"/>
</svg>
