<svg width="17" height="10" viewBox="0 0 17 10" fill="none" xmlns="http://www.w3.org/2000/svg">
<path fill-rule="evenodd" clip-rule="evenodd" d="M15.9021 0.969281C16.01 0.596642 15.9021 0.322754 15.3887 0.322754H13.6912C13.2596 0.322754 13.0607 0.559328 12.9528 0.820275C12.9528 0.820275 12.0896 3.00045 10.8666 4.41663C10.471 4.82658 10.2912 4.95686 10.0754 4.95686C9.96747 4.95686 9.8113 4.82658 9.8113 4.45394V0.969281C9.8113 0.522014 9.68605 0.322754 9.32631 0.322754H6.65885C6.38919 0.322754 6.22696 0.530306 6.22696 0.727053C6.22696 1.15108 6.8383 1.24882 6.90135 2.44137V5.03162C6.90135 5.59949 6.80241 5.70252 6.58659 5.70252C6.01114 5.70252 4.61145 3.51242 3.78115 1.00659C3.61843 0.519501 3.45523 0.322754 3.02141 0.322754H1.32393C0.838942 0.322754 0.741943 0.559328 0.741943 0.820275C0.741943 1.28614 1.31751 3.59685 3.42153 6.65283C4.82437 8.73966 6.80047 9.87114 8.59882 9.87114C9.67793 9.87114 9.8113 9.61987 9.8113 9.18705V7.60968C9.8113 7.10713 9.91351 7.00688 10.2551 7.00688C10.507 7.00688 10.9385 7.13729 11.9457 8.14351C13.0966 9.33593 13.2863 9.87114 13.9337 9.87114H15.6312C16.1162 9.87114 16.3587 9.61987 16.2188 9.12398C16.0658 8.62972 15.5163 7.91284 14.7871 7.06279C14.3914 6.5782 13.7979 6.05643 13.6182 5.79561C13.3664 5.46016 13.4383 5.31116 13.6182 5.01315C13.6182 5.01315 15.6863 1.99435 15.9021 0.969406V0.969281Z" fill="#334DA8"/>
</svg>
